<?xml version="1.0" encoding="UTF-8"?>
<!DOCTYPE svg PUBLIC "-//W3C//DTD SVG 1.1//EN" "http://www.w3.org/Graphics/SVG/1.1/DTD/svg11.dtd">
<svg version="1.1" id="Layer_1" xmlns="http://www.w3.org/2000/svg" xmlns:xlink="http://www.w3.org/1999/xlink" x="0px" y="0px" width="32px" height="32px" viewBox="0 0 32 32" enable-background="new 0 0 32 32" xml:space="preserve">
  <g id="icon">
    <path d="M26.742,1.484c0.649,-0.647,1.31,-0.647,1.959,0L30.524,3.3c0.613,0.611,0.613,1.6,0,2.211l-1.352,1.348c-0.071,0.071,-0.187,0.071,-0.258,0.001l-3.679,-3.635c-0.072,-0.072,-0.072,-0.188,0,-0.259L26.742,1.484zM1.043,30.469l3.637,-6.893c0.057,-0.109,0.204,-0.131,0.291,-0.044l3.56,3.548c0.087,0.087,0.065,0.233,-0.044,0.29l-6.916,3.625c-0.071,0.037,-0.158,0.024,-0.215,-0.032l-0.281,-0.28C1.019,30.626,1.005,30.54,1.043,30.469z" fill-rule="evenodd" fill="#797979"/>
    <path d="M5.833,22.323L24.077,4.14c0.071,-0.071,0.187,-0.071,0.259,0l3.652,3.64c0.071,0.071,0.071,0.187,0,0.258L9.744,26.221c-0.071,0.071,-0.187,0.071,-0.259,0l-3.652,-3.64C5.762,22.51,5.762,22.394,5.833,22.323z" fill-rule="evenodd" fill="#3E79B4"/>
  </g>
</svg>
