<?xml version="1.0" encoding="UTF-8"?>
<!DOCTYPE svg PUBLIC "-//W3C//DTD SVG 1.1//EN" "http://www.w3.org/Graphics/SVG/1.1/DTD/svg11.dtd">
<svg version="1.1" id="Layer_1" xmlns="http://www.w3.org/2000/svg" xmlns:xlink="http://www.w3.org/1999/xlink" x="0px" y="0px" width="32px" height="32px" viewBox="0 0 32 32" enable-background="new 0 0 32 32" xml:space="preserve">
  <g id="icon">
    <path d="M29.225,1.5H6.775C6.071,1.5,5.5,2.071,5.5,2.775v10.178c1.506,-0.441,3.312,-0.653,5.062,-0.653c4.264,0,8.58,1.342,8.58,3.906v1.715c0,0.261,-0.044,0.51,-0.127,0.746c1.667,0.86,2.032,1.886,2.032,2.618V23c0,1.58,-1.598,2.702,-3.81,3.337c0,0.009,0.001,0.018,0.001,0.026v1.715c0,0.525,-0.176,0.999,-0.493,1.421h12.481c0.704,0,1.275,-0.571,1.275,-1.275V2.775C30.5,2.071,29.929,1.5,29.225,1.5z" fill="#FFFFFF"/>
    <path d="M29.225,1H6.775C5.796,1,5,1.796,5,2.775v10.337c0.318,-0.109,0.652,-0.207,1,-0.294V2.775c0,-0.427,0.348,-0.775,0.775,-0.775h22.45c0.427,0,0.775,0.348,0.775,0.775v25.45c0,0.427,-0.348,0.775,-0.775,0.775H17.041c-0.163,0.366,-0.423,0.699,-0.761,1h12.945c0.979,0,1.775,-0.796,1.775,-1.775V2.775C31,1.796,30.204,1,29.225,1z" fill="#797979"/>
    <path d="M25.195,7.525c0,1.128,-0.244,1.693,-0.694,1.693c-0.442,0,-0.717,-0.541,-0.717,-1.677c0,-1.159,0.29,-1.693,0.709,-1.693C24.959,5.848,25.195,6.427,25.195,7.525zM28,4.563v5.875c0,0.311,-0.252,0.563,-0.563,0.563H8.563c-0.311,0,-0.563,-0.252,-0.563,-0.563V4.563c0,-0.311,0.252,-0.563,0.563,-0.563h18.875C27.748,4,28,4.252,28,4.563zM26.354,7.51c0,-1.357,-0.526,-2.539,-1.845,-2.539c-1.281,0,-1.883,1.128,-1.883,2.57c0.008,1.403,0.572,2.554,1.853,2.554C25.736,10.095,26.354,9.035,26.354,7.51z" fill="#B4B4B5"/>
    <path d="M24.509,4.971c-1.281,0,-1.883,1.128,-1.883,2.57c0.008,1.403,0.572,2.554,1.853,2.554c1.258,0,1.876,-1.06,1.876,-2.585C26.354,6.153,25.828,4.971,24.509,4.971zM24.501,9.218c-0.442,0,-0.717,-0.541,-0.717,-1.677c0,-1.159,0.29,-1.693,0.709,-1.693c0.465,0,0.701,0.58,0.701,1.678C25.195,8.654,24.951,9.218,24.501,9.218z" fill="#FFFFFF"/>
    <path d="M8.055,12.447c0.109,-0.262,0.368,-0.447,0.67,-0.447h7.55c0.4,0,0.725,0.325,0.725,0.725v0.813C15.347,12.72,12.946,12.3,10.562,12.3C9.726,12.3,8.878,12.348,8.055,12.447zM28,20.725v5.55c0,0.4,-0.325,0.725,-0.725,0.725h-7.55c-0.4,0,-0.725,-0.325,-0.725,-0.725v-0.623c1.248,-0.649,2.046,-1.536,2.046,-2.652v0H26v-1h-4.954v-0.715c0,-0.372,-0.095,-0.821,-0.407,-1.285h6.636C27.675,20,28,20.325,28,20.725zM26,24h-5v1h5V24zM28,12.725v5.55c0,0.4,-0.325,0.725,-0.725,0.725h-7.55c-0.06,0,-0.117,-0.008,-0.173,-0.022c-0.114,-0.074,-0.235,-0.147,-0.366,-0.219c-0.057,-0.063,-0.102,-0.135,-0.134,-0.215c0.058,-0.199,0.09,-0.406,0.09,-0.622v-1.715c0,-0.273,-0.049,-0.532,-0.142,-0.776v-2.705c0,-0.4,0.325,-0.725,0.725,-0.725h7.55C27.675,12,28,12.325,28,12.725zM24.207,15.5l1.414,-1.414l-0.707,-0.707L23.5,14.793l-1.414,-1.414l-0.707,0.707L22.793,15.5l-1.414,1.414l0.707,0.707L23.5,16.207l1.414,1.414l0.707,-0.707L24.207,15.5z" fill="#3E79B4"/>
    <path d="M21.379,16.914L22.793,15.5l-1.414,-1.414l0.707,-0.707L23.5,14.793l1.414,-1.414l0.707,0.707L24.207,15.5l1.414,1.414l-0.707,0.707L23.5,16.207l-1.414,1.414L21.379,16.914zM21.046,22v1H26v-1H21.046zM21,25h5v-1h-5V25z" fill="#FFFFFF"/>
    <g>
      <path d="M10.562,13.3c-4.191,0,-7.641,1.228,-7.641,2.828c0,0.055,0,1.583,0,1.793c0,1.599,3.462,2.953,7.65,2.953s7.571,-1.354,7.571,-2.953c0,-0.255,0,-1.672,0,-1.715C18.142,14.606,14.753,13.3,10.562,13.3zM10.431,18.81c-4.135,0.061,-7.432,-1.146,-7.312,-2.758c0.517,1.199,3.389,2.094,7.018,2.094c3.993,0,7.752,-0.827,7.752,-2.209c0,-0.036,-0.003,-0.072,-0.008,-0.107c0.064,0.137,0.091,0.277,0.098,0.42C18.051,17.771,14.561,18.75,10.431,18.81z" fill-rule="evenodd" fill="#EAB765"/>
      <path d="M17.881,15.83c0.005,0.036,0.008,0.071,0.008,0.107c0,1.382,-3.76,2.209,-7.752,2.209c-3.629,0,-6.501,-0.894,-7.018,-2.094c-0.12,1.612,3.177,2.819,7.312,2.758c4.131,-0.061,7.621,-1.04,7.548,-2.56C17.972,16.107,17.945,15.967,17.881,15.83z" fill-rule="evenodd" fill="#FFFFFF"/>
    </g>
    <g>
      <path d="M18.231,19.399c-0.893,1.086,-4.165,2.136,-7.788,2.136c-2.14,0,-4.075,-0.366,-5.472,-0.889c-0.096,0.181,-0.146,0.368,-0.146,0.561c0,0.055,0,1.583,0,1.793c0,1.599,3.462,2.953,7.65,2.953S20.046,24.6,20.046,23c0,-0.255,0,-1.672,0,-1.715C20.046,20.567,19.363,19.908,18.231,19.399zM12.335,23.889c-4.135,0.061,-7.432,-1.146,-7.312,-2.758c0.517,1.199,3.389,2.094,7.018,2.094c3.993,0,7.752,-0.827,7.752,-2.209c0,-0.036,-0.003,-0.072,-0.008,-0.107c0.064,0.137,0.091,0.277,0.098,0.42C19.956,22.849,16.466,23.828,12.335,23.889z" fill-rule="evenodd" fill="#EAB765"/>
      <path d="M19.883,21.329c-0.007,-0.143,-0.034,-0.283,-0.098,-0.42c0.005,0.036,0.008,0.071,0.008,0.107c0,1.382,-3.76,2.209,-7.752,2.209c-3.629,0,-6.501,-0.894,-7.018,-2.094c-0.12,1.612,3.177,2.819,7.312,2.758C16.466,23.828,19.956,22.849,19.883,21.329z" fill-rule="evenodd" fill="#FFFFFF"/>
    </g>
    <g>
      <path d="M16.22,26.172c-0.07,0.016,-0.14,0.031,-0.211,0.046c0.014,-0.003,0.027,-0.006,0.041,-0.009c0.014,0.066,0.022,0.132,0.025,0.198c0.072,1.52,-3.417,2.499,-7.548,2.56c-4.135,0.061,-7.432,-1.146,-7.312,-2.758c0.517,1.199,3.389,2.094,7.018,2.094c3.865,0,7.512,-0.775,7.741,-2.078c-1.152,0.241,-2.459,0.389,-3.816,0.389c-4.25,0,-7.696,-1.444,-7.707,-2.696c-2.063,0.499,-3.434,1.359,-3.434,2.368c0,0.055,0,1.583,0,1.793c0,1.599,3.462,2.953,7.65,2.953s7.571,-1.354,7.571,-2.953c0,-0.255,0,-1.672,0,-1.715C16.237,26.299,16.231,26.235,16.22,26.172z" fill-rule="evenodd" fill="#EAB765"/>
      <path d="M16.049,26.209c-0.025,0.005,-0.051,0.011,-0.076,0.016c-0.229,1.304,-3.876,2.078,-7.741,2.078c-3.629,0,-6.501,-0.894,-7.018,-2.094c-0.12,1.612,3.177,2.819,7.312,2.758c4.131,-0.061,7.621,-1.04,7.548,-2.56C16.071,26.341,16.063,26.275,16.049,26.209z" fill-rule="evenodd" fill="#FFFFFF"/>
    </g>
  </g>
</svg>
