<?xml version="1.0" encoding="UTF-8"?>
<!DOCTYPE svg PUBLIC "-//W3C//DTD SVG 1.1//EN" "http://www.w3.org/Graphics/SVG/1.1/DTD/svg11.dtd">
<svg version="1.1" id="Layer_1" xmlns="http://www.w3.org/2000/svg" xmlns:xlink="http://www.w3.org/1999/xlink" x="0px" y="0px" width="16px" height="16px" viewBox="0 0 16 16" enable-background="new 0 0 16 16" xml:space="preserve">
  <g id="icon">
    <path d="M7.622,14.038c-0.272,-0.765,-1.114,-1.165,-1.88,-0.893c-0.766,0.272,-1.166,1.113,-0.894,1.878c0.272,0.765,1.114,1.165,1.88,0.893C7.494,15.644,7.894,14.803,7.622,14.038zM6.432,15.084c-0.306,0.109,-0.643,-0.051,-0.752,-0.357c-0.109,-0.306,0.051,-0.642,0.358,-0.751c0.306,-0.109,0.643,0.051,0.752,0.357C6.899,14.639,6.739,14.976,6.432,15.084z" fill-rule="evenodd" fill="#797979"/>
    <path d="M6.038,13.976c0.306,-0.109,0.643,0.051,0.752,0.357c0.109,0.306,-0.051,0.642,-0.358,0.751c-0.306,0.109,-0.643,-0.051,-0.752,-0.357C5.571,14.421,5.731,14.085,6.038,13.976z" fill-rule="evenodd" fill="none"/>
    <path d="M2.945,3.22l3.237,9.533c-0.185,0.005,-0.368,0.039,-0.544,0.102c-0.206,0.073,-0.394,0.182,-0.556,0.319L1.909,3.788c0,0,0,0,0,-0.001c-0.015,-0.043,-0.056,-0.073,-0.102,-0.068l-0.152,0.016c-0.143,0.015,-0.27,0.085,-0.376,0.18c-0.042,0.038,-0.098,0.061,-0.159,0.061H0.549c-0.294,0,-0.532,-0.238,-0.532,-0.532v0c0,-0.294,0.238,-0.632,0.532,-0.632h0.572c0.06,0,0.114,0.022,0.156,0.058c0.118,0.102,0.272,0.152,0.429,0.152l0.858,0c0.022,0,0.04,0.003,0.056,0.007C2.757,3.006,2.897,3.084,2.945,3.22zM13.709,12.223l-0.197,-0.554c-0.054,-0.153,-0.223,-0.233,-0.376,-0.179l-5.531,1.908c0.13,0.157,0.236,0.337,0.307,0.537c0.066,0.185,0.1,0.376,0.103,0.566l5.515,-1.903C13.683,12.544,13.763,12.376,13.709,12.223z" fill-rule="evenodd" fill="#797979"/>
    <path d="M8.321,3.696L4.568,4.974l1.66,-1.868c0.039,-0.044,0.089,-0.078,0.146,-0.097l1.815,-0.618L8.321,3.696zM8.781,2.189l0.66,1.126l3.752,-1.278l-2.473,-0.456c-0.057,-0.015,-0.117,-0.012,-0.173,0.007C10.221,1.698,8.781,2.189,8.781,2.189zM9.574,3.607l3.933,-1.34l2.476,7.266c0.056,0.164,-0.032,0.343,-0.196,0.399L7.31,12.821c-0.171,0.058,-0.351,-0.036,-0.406,-0.199L4.43,5.36l3.933,-1.34l0.567,1.664c0.025,0.073,0.126,0.126,0.203,0.1l0.908,-0.309c0.077,-0.026,0.125,-0.13,0.1,-0.203L9.574,3.607zM12.135,7.301l0.456,-0.155l0.594,1.744c0.013,0.039,0.056,0.061,0.096,0.047l0.462,-0.157c0.039,-0.013,0.061,-0.056,0.047,-0.096l-0.594,-1.744l0.437,-0.149c0.038,-0.013,0.046,-0.064,0.013,-0.087l-1.073,-0.764c-0.024,-0.017,-0.059,-0.006,-0.068,0.023l-0.42,1.29C12.075,7.284,12.104,7.312,12.135,7.301zM10.319,7.92l0.456,-0.155l0.594,1.744c0.013,0.039,0.056,0.061,0.096,0.047l0.462,-0.157c0.039,-0.013,0.061,-0.056,0.047,-0.096l-0.594,-1.744l0.437,-0.149c0.038,-0.013,0.046,-0.064,0.013,-0.087l-1.073,-0.764c-0.024,-0.017,-0.059,-0.006,-0.068,0.023l-0.42,1.29C10.26,7.902,10.289,7.93,10.319,7.92zM14.575,9.006c-0.029,-0.085,-0.122,-0.131,-0.207,-0.102l-3.322,1.132c-0.085,0.029,-0.131,0.122,-0.102,0.207l0.101,0.297c0.029,0.085,0.122,0.131,0.207,0.102l3.322,-1.132c0.085,-0.029,0.131,-0.122,0.102,-0.207L14.575,9.006z" fill="#EAB765"/>
    <path d="M13.192,2.036L4.569,4.975c-0.109,0.17,-0.154,0.298,-0.139,0.385l9.077,-3.093C13.458,2.142,13.33,2.085,13.192,2.036z" fill="#FFFFFF"/>
    <path d="M8.781,2.189l0.75,1.277l0.61,1.805c0.025,0.073,-0.023,0.177,-0.1,0.203l-0.908,0.309c-0.077,0.026,-0.178,-0.027,-0.203,-0.1l-0.606,-1.807l-0.136,-1.486L8.781,2.189zM11.252,10.641l3.322,-1.132c0.085,-0.029,0.131,-0.122,0.102,-0.207l-0.101,-0.297c-0.029,-0.085,-0.122,-0.131,-0.207,-0.102l-3.322,1.132c-0.085,0.029,-0.131,0.122,-0.102,0.207l0.101,0.297C11.075,10.625,11.167,10.67,11.252,10.641zM10.689,6.582l-0.42,1.29c-0.009,0.03,0.02,0.059,0.05,0.048l0.456,-0.155l0.594,1.744c0.013,0.039,0.056,0.061,0.096,0.047l0.462,-0.157c0.039,-0.013,0.061,-0.056,0.047,-0.096l-0.594,-1.744l0.437,-0.149c0.038,-0.013,0.046,-0.064,0.013,-0.087l-1.073,-0.764C10.732,6.541,10.698,6.553,10.689,6.582zM12.504,5.963l-0.42,1.29c-0.009,0.03,0.02,0.059,0.05,0.048l0.456,-0.155l0.594,1.744c0.013,0.039,0.056,0.061,0.096,0.047l0.462,-0.157c0.039,-0.013,0.061,-0.056,0.047,-0.096l-0.594,-1.744l0.437,-0.149c0.038,-0.013,0.046,-0.064,0.013,-0.087l-1.073,-0.764C12.547,5.923,12.513,5.934,12.504,5.963z" fill-rule="evenodd" fill="#797979"/>
  </g>
</svg>
