<?xml version="1.0" encoding="UTF-8"?>
<!DOCTYPE svg PUBLIC "-//W3C//DTD SVG 1.1//EN" "http://www.w3.org/Graphics/SVG/1.1/DTD/svg11.dtd">
<svg version="1.1" id="Layer_1" xmlns="http://www.w3.org/2000/svg" xmlns:xlink="http://www.w3.org/1999/xlink" x="0px" y="0px" width="16px" height="16px" viewBox="0 0 16 16" enable-background="new 0 0 16 16" xml:space="preserve">
  <g id="icon">
    <ellipse cx="8.0479" cy="5.0161" rx="1.8366" ry="1.8252" fill="#FFFFFF"/>
    <path d="M15.9892,14.8031l-2.6714,-4.4623c-0.0991,-0.1964,-0.3012,-0.3408,-0.5223,-0.3408h-0.8677c-0.1754,0.2,-0.3548,0.7,-0.5341,1h0.8131c0.1658,0,0.2908,0.0873,0.3651,0.2098l1.4605,2.8515c0.2049,0.3376,0.0918,0.5387,-0.3651,0.5387H2.5653c-0.4569,0,-0.716,0.0037,-0.5112,-0.5337l1.436,-2.8983c0.073,-0.1451,0.299,-0.168,0.4647,-0.168h0.7473c-0.1793,-0.3,-0.3588,-0.8,-0.5341,-1h-0.8749c-0.2211,0,-0.4232,0.1445,-0.5223,0.3408L0.0994,14.7929C-0.1738,15.3341,0.2785,16,0.8877,16h14.3132C15.8101,16,16.2624,15.3443,15.9892,14.8031z" fill="#797979"/>
    <path d="M12.2068,11.02h-8.252c-0.1658,0,-0.3917,0,-0.4647,0.1451l-1.436,2.8754c-0.2049,0.5374,0.0543,0.508,0.5112,0.508h11.102c0.4569,0,0.57,-0.1704,0.3651,-0.508l-1.4605,-2.8208C12.4976,11.0973,12.3726,11.02,12.2068,11.02z" fill="#FFFFFF"/>
    <path d="M8.1192,0.0429C5.3224,0.0043,3.0431,2.2457,3.0431,5.0161c0,0.8224,0.2008,1.5981,0.5564,2.2814c0.7066,1.3579,3.4207,5.1476,4.2235,6.2601c0.1105,0.1532,0.3393,0.1532,0.4498,0c0.8028,-1.1125,3.5169,-4.9021,4.2235,-6.26c0.3583,-0.6885,0.5595,-1.4708,0.5564,-2.3C13.0429,2.2984,10.8351,0.0805,8.1192,0.0429zM8.0479,6.8414c-1.0144,0,-1.8366,-0.8172,-1.8366,-1.8252c0,-1.008,0.8223,-1.8252,1.8366,-1.8252s1.8366,0.8172,1.8366,1.8252C9.8846,6.0242,9.0623,6.8414,8.0479,6.8414z" fill="#3E79B4"/>
  </g>
</svg>
