<?xml version="1.0" encoding="UTF-8"?>
<!DOCTYPE svg PUBLIC "-//W3C//DTD SVG 1.1//EN" "http://www.w3.org/Graphics/SVG/1.1/DTD/svg11.dtd">
<svg version="1.1" id="Layer_1" xmlns="http://www.w3.org/2000/svg" xmlns:xlink="http://www.w3.org/1999/xlink" x="0px" y="0px" width="16px" height="16px" viewBox="0 0 16 16" enable-background="new 0 0 16 16" xml:space="preserve">
  <g id="icon">
    <path d="M8.064,0.001C4.813,-0.045,2.163,2.578,2.163,5.819c0,0.962,0.233,1.87,0.647,2.669c0.822,1.589,3.977,6.022,4.91,7.324c0.128,0.179,0.394,0.179,0.523,0c0.933,-1.301,4.089,-5.735,4.91,-7.323c0.417,-0.805,0.65,-1.721,0.647,-2.691C13.788,2.639,11.222,0.045,8.064,0.001zM10.106,6.807c-0.208,0.492,0.974,2.574,0.54,2.943S8.563,8.32,8.026,8.32S5.873,10.014,5.44,9.697c-0.433,-0.316,0.644,-2.464,0.506,-2.921c-0.139,-0.457,-2.292,-1.484,-2.16,-2.081c0.132,-0.597,2.543,-0.014,2.942,-0.313c0.398,-0.299,0.692,-2.794,1.299,-2.811c0.728,-0.002,0.883,2.46,1.247,2.776c0.364,0.316,2.872,-0.267,2.994,0.348C12.387,5.311,10.314,6.315,10.106,6.807z" fill="#4EA17E"/>
    <path d="M8.026,1.572c0.728,-0.002,0.883,2.46,1.247,2.776c0.364,0.316,2.872,-0.267,2.994,0.348c0.121,0.615,-1.952,1.62,-2.16,2.111c-0.208,0.492,0.974,2.574,0.54,2.943c-0.433,0.369,-2.084,-1.43,-2.621,-1.43S5.873,10.014,5.44,9.697c-0.433,-0.316,0.644,-2.464,0.506,-2.921c-0.139,-0.457,-2.292,-1.484,-2.16,-2.081c0.132,-0.597,2.543,-0.014,2.942,-0.313C7.126,4.085,7.419,1.59,8.026,1.572" fill-rule="evenodd" fill="#FFFFFF"/>
  </g>
</svg>
