<?xml version="1.0" encoding="UTF-8"?>
<!DOCTYPE svg PUBLIC "-//W3C//DTD SVG 1.1//EN" "http://www.w3.org/Graphics/SVG/1.1/DTD/svg11.dtd">
<svg version="1.1" id="Layer_1" xmlns="http://www.w3.org/2000/svg" xmlns:xlink="http://www.w3.org/1999/xlink" x="0px" y="0px" width="16px" height="16px" viewBox="0 0 16 16" enable-background="new 0 0 16 16" xml:space="preserve">
  <g id="icon">
    <circle cx="7.9814" cy="5.8186" r="2.1353" fill="#FFFFFF"/>
    <path d="M8.0642,0.0006C4.8127,-0.0447,2.1627,2.5775,2.1627,5.8186c0,0.9621,0.2335,1.8696,0.6469,2.669c0.8215,1.5886,3.9769,6.0221,4.9103,7.3235c0.1285,0.1792,0.3945,0.1792,0.523,0c0.9333,-1.3014,4.0887,-5.7348,4.9102,-7.3234c0.4165,-0.8054,0.6504,-1.7206,0.6469,-2.6908C13.7885,2.6392,11.2217,0.0445,8.0642,0.0006zM7.9814,7.9539c-1.1793,0,-2.1353,-0.956,-2.1353,-2.1353c0,-1.1793,0.956,-2.1353,2.1353,-2.1353s2.1353,0.956,2.1353,2.1353C10.1166,6.9979,9.1606,7.9539,7.9814,7.9539z" fill="#3E79B4"/>
  </g>
</svg>
