<?xml version="1.0" encoding="UTF-8"?>
<!DOCTYPE svg PUBLIC "-//W3C//DTD SVG 1.1//EN" "http://www.w3.org/Graphics/SVG/1.1/DTD/svg11.dtd">
<svg version="1.1" id="Layer_1" xmlns="http://www.w3.org/2000/svg" xmlns:xlink="http://www.w3.org/1999/xlink" x="0px" y="0px" width="32px" height="32px" viewBox="0 0 32 32" enable-background="new 0 0 32 32" xml:space="preserve">
  <g id="icon">
    <path d="M29.666,6.696l-4.648,1.396c0,0,0,0,0,0l-2.883,-1.509c0,0,-0.055,0.062,-0.134,0.158V4.36c0.08,0.095,0.134,0.158,0.134,0.158l2.883,-1.509c0,0,0,0,0,0l4.648,1.396c0.344,0.091,0.702,-0.125,0.798,-0.482c0.097,-0.357,-0.103,-0.72,-0.447,-0.811L25.53,1.28c-0.16,-0.171,-0.401,-0.252,-0.636,-0.19L22,2.45V1h-2v9h2V8.651l2.894,1.36c0.235,0.062,0.476,-0.019,0.636,-0.19l4.487,-1.832c0.344,-0.091,0.544,-0.454,0.447,-0.811C30.367,6.821,30.01,6.605,29.666,6.696z" fill-rule="evenodd" fill="#3E79B4"/>
    <path d="M19.852,21.522c1.263,1.782,1.077,4.253,-0.554,5.849c-1.834,1.794,-4.797,1.803,-6.62,0.019l-5.362,-4.426C2.504,25.066,-0.124,28.508,1.462,30.4c0.945,0.928,4.784,0.503,14.587,0.503c9.803,0,13.983,0.335,14.587,-0.503C32.407,28.226,27.539,22.919,19.852,21.522z" fill-rule="evenodd" fill="#797979"/>
    <path d="M18.298,21.845l-10.7,-8.825c-1.287,-1.259,-3.37,-1.261,-4.653,-0.005c-1.283,1.256,-1.281,3.294,0.006,4.553l10.7,8.825c1.287,1.259,3.37,1.261,4.653,0.005C19.587,25.142,19.584,23.104,18.298,21.845zM5.173,16.497c-0.754,0,-1.366,-0.601,-1.366,-1.342c0,-0.741,0.612,-1.342,1.366,-1.342c0.754,0,1.366,0.601,1.366,1.342C6.539,15.896,5.928,16.497,5.173,16.497zM16.052,25.535c-0.754,0,-1.366,-0.6,-1.366,-1.34c0,-0.74,0.612,-1.34,1.366,-1.34c0.754,0,1.366,0.6,1.366,1.34C17.418,24.936,16.806,25.535,16.052,25.535z" fill-rule="evenodd" fill="#797979"/>
    <path d="M11.337,9.669c-1.995,0.002,-3.668,-1.352,-4.128,-3.182l-3.026,4.56c0.35,-0.086,0.713,-0.13,1.083,-0.13c1.167,0,2.267,0.44,3.103,1.239l1.473,1.215l2.502,-3.704L11.337,9.669z" fill-rule="evenodd" fill="#797979"/>
    <path d="M17.009,3.975l0.001,-1.473l-5.635,0.014c-1.66,0.002,-3.007,1.322,-3.009,2.948C8.365,7.091,9.71,8.408,11.37,8.407l5.635,-0.014l0.001,-1.361h1.997V3.975H17.009zM11.612,6.745c-0.754,0,-1.366,-0.601,-1.366,-1.342s0.612,-1.342,1.366,-1.342s1.366,0.601,1.366,1.342S12.367,6.745,11.612,6.745z" fill-rule="evenodd" fill="#797979"/>
    <path d="M5.173,13.813c0.754,0,1.366,0.601,1.366,1.342s-0.612,1.342,-1.366,1.342c-0.754,0,-1.366,-0.601,-1.366,-1.342S4.419,13.813,5.173,13.813zM16.052,22.856c0.754,0,1.366,0.6,1.366,1.34c0,0.74,-0.612,1.34,-1.366,1.34c-0.754,0,-1.366,-0.6,-1.366,-1.34C14.686,23.456,15.298,22.856,16.052,22.856zM11.612,4.061c0.754,0,1.366,0.601,1.366,1.342s-0.612,1.342,-1.366,1.342s-1.366,-0.601,-1.366,-1.342S10.858,4.061,11.612,4.061z" fill-rule="evenodd" fill="#FFFFFF"/>
  </g>
</svg>
