<?xml version="1.0" encoding="UTF-8"?>
<!DOCTYPE svg PUBLIC "-//W3C//DTD SVG 1.1//EN" "http://www.w3.org/Graphics/SVG/1.1/DTD/svg11.dtd">
<svg version="1.1" id="Layer_1" xmlns="http://www.w3.org/2000/svg" xmlns:xlink="http://www.w3.org/1999/xlink" x="0px" y="0px" width="16px" height="16px" viewBox="0 0 16 16" enable-background="new 0 0 16 16" xml:space="preserve">
  <g id="main">
    <clipPath id="clip_mask">
      <path d="M6.663,16H0V0h16v6.528l-0.074,-0.078c-0.223,-0.235,-0.537,-0.37,-0.861,-0.37c-0.069,0,-0.138,0.006,-0.205,0.018c-0.202,-0.346,-0.572,-0.577,-0.994,-0.588l-0.378,-0.01l-0.031,0c-0.391,0,-0.747,0.193,-0.964,0.496c-0.092,-0.022,-0.186,-0.034,-0.283,-0.034c-0.305,0,-0.596,0.116,-0.817,0.326l-0.275,0.26c-0.3,0.284,-0.422,0.69,-0.351,1.075c-0.223,0.134,-0.395,0.34,-0.49,0.583c-0.2,0.073,-0.382,0.195,-0.524,0.357c-0.236,-0.358,-0.638,-0.577,-1.07,-0.577c-0.145,0,-0.289,0.025,-0.426,0.073l-0.536,0.189c-0.539,0.19,-0.879,0.706,-0.854,1.264c-0.073,-0.013,-0.147,-0.019,-0.222,-0.019c-0.49,0,-0.944,0.286,-1.155,0.728l-0.245,0.513c-0.251,0.525,-0.117,1.145,0.315,1.519c-0.477,0.325,-0.68,0.931,-0.485,1.484l0.19,0.537c0.18,0.511,0.666,0.854,1.208,0.854c0.013,0,0.026,0,0.039,-0.001C6.453,15.435,6.513,15.742,6.663,16zM15.749,11.518c-0.221,0.209,-0.511,0.325,-0.816,0.325h0c-0.098,0,-0.196,-0.013,-0.291,-0.037c-0.182,0.247,-0.458,0.418,-0.768,0.468c-0.098,0.191,-0.245,0.359,-0.434,0.483c0.428,0.375,0.56,0.992,0.309,1.516l-0.245,0.511c-0.212,0.441,-0.665,0.727,-1.155,0.727c0,0,0,0,0,0c-0.076,0,-0.153,-0.007,-0.228,-0.02c0.006,0.177,-0.026,0.35,-0.089,0.509H16v-4.72L15.749,11.518z" fill-rule="evenodd"/>
    </clipPath>
    <g id="icon" clip-path="url(#clip_mask)">
      <path d="M14.318,2.858l-2.319,0.697c0,0,0,0,0,0l-1.438,-0.753c0,0,-0.027,0.031,-0.067,0.079V1.693c0.04,0.048,0.067,0.079,0.067,0.079l1.438,-0.753c0,0,0,0,0,0l2.319,0.697c0.172,0.045,0.35,-0.062,0.398,-0.24s-0.052,-0.359,-0.223,-0.405l-2.238,-0.914c-0.08,-0.085,-0.2,-0.126,-0.317,-0.095L10.493,0.74V0.017h-0.998v4.49h0.998v-0.673l1.444,0.678c0.117,0.031,0.237,-0.009,0.317,-0.095l2.238,-0.914c0.172,-0.045,0.272,-0.227,0.223,-0.405C14.668,2.921,14.489,2.813,14.318,2.858z" fill-rule="evenodd" fill="#3E79B4"/>
      <path d="M9.422,10.255c0.63,0.889,0.537,2.122,-0.277,2.918c-0.915,0.895,-2.393,0.899,-3.303,0.01l-2.675,-2.208C0.767,12.023,-0.544,13.74,0.247,14.684c0.471,0.463,2.387,0.251,7.277,0.251c4.891,0,6.976,0.167,7.277,-0.251C15.685,13.599,13.257,10.952,9.422,10.255z" fill-rule="evenodd" fill="#797979"/>
      <path d="M8.646,10.416L3.308,6.013c-0.642,-0.628,-1.681,-0.629,-2.321,-0.003c-0.64,0.627,-0.639,1.643,0.003,2.271l5.338,4.403c0.642,0.628,1.681,0.629,2.321,0.003C9.289,12.061,9.288,11.044,8.646,10.416zM2.099,7.748c-0.376,0,-0.681,-0.3,-0.681,-0.67c0,-0.37,0.305,-0.67,0.681,-0.67c0.376,0,0.681,0.3,0.681,0.67C2.78,7.448,2.475,7.748,2.099,7.748zM7.526,12.257c-0.376,0,-0.681,-0.299,-0.681,-0.668c0,-0.369,0.305,-0.668,0.681,-0.668c0.376,0,0.681,0.299,0.681,0.668C8.207,11.958,7.902,12.257,7.526,12.257z" fill-rule="evenodd" fill="#797979"/>
      <path d="M5.174,4.342c-0.995,0.001,-1.83,-0.675,-2.059,-1.587l-1.51,2.275c0.175,-0.043,0.356,-0.065,0.54,-0.065c0.582,0,1.131,0.219,1.548,0.618l0.735,0.606L5.676,4.34L5.174,4.342z" fill-rule="evenodd" fill="#797979"/>
      <path d="M8.003,1.501l0.001,-0.735L5.193,0.773c-0.828,0.001,-1.5,0.659,-1.501,1.471c-0.001,0.812,0.67,1.469,1.498,1.468l2.811,-0.007l0.001,-0.679h0.996V1.501H8.003zM5.311,2.883c-0.376,0,-0.681,-0.3,-0.681,-0.67s0.305,-0.67,0.681,-0.67c0.376,0,0.681,0.3,0.681,0.67S5.687,2.883,5.311,2.883z" fill-rule="evenodd" fill="#797979"/>
      <path d="M2.099,6.409c0.376,0,0.681,0.3,0.681,0.67c0,0.37,-0.305,0.67,-0.681,0.67c-0.376,0,-0.681,-0.3,-0.681,-0.67C1.417,6.709,1.722,6.409,2.099,6.409zM7.526,10.92c0.376,0,0.681,0.299,0.681,0.668s-0.305,0.668,-0.681,0.668c-0.376,0,-0.681,-0.299,-0.681,-0.668S7.15,10.92,7.526,10.92zM5.311,1.544c0.376,0,0.681,0.3,0.681,0.67s-0.305,0.67,-0.681,0.67c-0.376,0,-0.681,-0.3,-0.681,-0.67S4.935,1.544,5.311,1.544z" fill-rule="evenodd" fill="#FFFFFF"/>
    </g>
    <g id="overlay">
      <path d="M13,11.596l-0.189,-0.536c-0.045,-0.129,-0.177,-0.206,-0.311,-0.183l-0.828,0.14c-0.115,-0.165,-0.25,-0.319,-0.406,-0.459l0.233,-0.829c0.037,-0.131,-0.026,-0.27,-0.149,-0.329l-0.513,-0.245c-0.123,-0.059,-0.271,-0.021,-0.35,0.09l-0.485,0.682c-0.216,-0.042,-0.435,-0.057,-0.652,-0.045l-0.422,-0.751c-0.067,-0.119,-0.21,-0.173,-0.338,-0.127l-0.536,0.189c-0.129,0.045,-0.206,0.177,-0.183,0.311l0.14,0.828c-0.168,0.114,-0.325,0.248,-0.468,0.404l-0.82,-0.23c-0.131,-0.037,-0.27,0.026,-0.329,0.149l-0.245,0.513c-0.059,0.123,-0.021,0.271,0.091,0.35l0.661,0.47c-0.047,0.225,-0.052,0.451,-0.04,0.679l-0.714,0.402c-0.119,0.067,-0.172,0.209,-0.127,0.338l0.19,0.537c0.045,0.128,0.176,0.206,0.311,0.183l0.782,-0.13c0.12,0.179,0.257,0.347,0.424,0.497L7.5,15.279c-0.037,0.131,0.026,0.271,0.149,0.33l0.511,0.245c0.123,0.059,0.271,0.021,0.35,-0.09l0.455,-0.64c0.233,0.047,0.466,0.052,0.702,0.036l0.393,0.698c0.067,0.119,0.21,0.172,0.338,0.127l0.537,-0.189c0.129,-0.045,0.206,-0.176,0.184,-0.311l-0.13,-0.783c0.176,-0.121,0.341,-0.259,0.488,-0.426l0.797,0.226c0.131,0.037,0.271,-0.026,0.33,-0.149l0.245,-0.511c0.059,-0.123,0.021,-0.271,-0.091,-0.35l-0.661,-0.47c0.042,-0.223,0.056,-0.45,0.041,-0.675l0.736,-0.413C12.991,11.867,13.045,11.724,13,11.596zM10.419,13.32c-0.438,0.512,-1.209,0.572,-1.721,0.134c-0.512,-0.438,-0.572,-1.208,-0.134,-1.72c0.438,-0.512,1.209,-0.572,1.721,-0.134C10.798,12.038,10.858,12.808,10.419,13.32z" fill-rule="evenodd" fill="#E68055"/>
      <path d="M15.965,9.172l0.01,-0.378c0.002,-0.091,-0.061,-0.17,-0.15,-0.188l-0.548,-0.11c-0.032,-0.13,-0.08,-0.258,-0.143,-0.382l0.342,-0.46c0.054,-0.073,0.048,-0.174,-0.014,-0.24l-0.261,-0.275c-0.063,-0.066,-0.163,-0.077,-0.239,-0.027l-0.464,0.308c-0.124,-0.077,-0.257,-0.139,-0.395,-0.183l-0.083,-0.568c-0.013,-0.09,-0.089,-0.157,-0.18,-0.16l-0.378,-0.01c-0.091,-0.002,-0.17,0.061,-0.188,0.15l-0.11,0.548c-0.132,0.031,-0.261,0.077,-0.387,0.14l-0.455,-0.338c-0.073,-0.054,-0.174,-0.048,-0.24,0.014l-0.275,0.26c-0.066,0.063,-0.077,0.163,-0.027,0.239l0.299,0.449c-0.083,0.129,-0.14,0.268,-0.186,0.413l-0.54,0.08c-0.09,0.013,-0.157,0.089,-0.159,0.18l-0.01,0.379c-0.002,0.091,0.061,0.17,0.15,0.188l0.518,0.105c0.032,0.14,0.077,0.277,0.145,0.41l-0.326,0.436c-0.054,0.073,-0.049,0.174,0.014,0.24l0.259,0.274c0.063,0.066,0.164,0.077,0.239,0.027l0.435,-0.29c0.134,0.085,0.278,0.143,0.428,0.189l0.078,0.528c0.013,0.09,0.089,0.157,0.18,0.159l0.379,0.01c0.091,0.002,0.17,-0.061,0.188,-0.15l0.105,-0.518c0.138,-0.033,0.274,-0.08,0.405,-0.149l0.442,0.33c0.073,0.054,0.174,0.049,0.24,-0.014l0.274,-0.259c0.066,-0.063,0.078,-0.164,0.027,-0.239l-0.299,-0.45c0.079,-0.129,0.142,-0.266,0.186,-0.41l0.556,-0.082C15.895,9.339,15.963,9.263,15.965,9.172zM13.95,9.63c-0.394,0.214,-0.888,0.068,-1.102,-0.326c-0.214,-0.394,-0.068,-0.887,0.327,-1.101c0.394,-0.214,0.888,-0.068,1.102,0.326S14.344,9.416,13.95,9.63z" fill-rule="evenodd" fill="#E68055"/>
    </g>
  </g>
</svg>
