<?xml version="1.0" encoding="UTF-8"?>
<!DOCTYPE svg PUBLIC "-//W3C//DTD SVG 1.1//EN" "http://www.w3.org/Graphics/SVG/1.1/DTD/svg11.dtd">
<svg version="1.1" id="Layer_1" xmlns="http://www.w3.org/2000/svg" xmlns:xlink="http://www.w3.org/1999/xlink" x="0px" y="0px" width="16px" height="16px" viewBox="0 0 16 16" enable-background="new 0 0 16 16" xml:space="preserve">
  <g id="icon">
    <path d="M4.575,6l-3.404,-0.002l1.866,-0.959c0.044,-0.025,0.094,-0.039,0.145,-0.039l1.646,0.001L4.575,6zM5.296,5.033L5.513,6l3.302,0.001l-1.827,-0.926c-0.041,-0.027,-0.089,-0.041,-0.138,-0.041C6.564,5.034,5.296,5.033,5.296,5.033zM5.593,6.5l3.394,0.001l-0.003,6.236c0,0.145,-0.117,0.262,-0.262,0.262l-7.453,-0.003c-0.152,0,-0.269,-0.124,-0.268,-0.268L1.003,6.5l3.491,0.001l-0.001,1.265c0,0.064,0.068,0.133,0.137,0.133l0.824,0c0.07,0,0.137,-0.069,0.137,-0.133L5.593,6.5zM6.565,10l0.425,0l-0.001,1.437c0,0.035,0.028,0.063,0.063,0.063l0.374,0c0.035,0,0.063,-0.028,0.063,-0.063l0,-1.537h0.394c0.034,0.041,0.053,0.003,0.033,-0.024l-0.641,-0.892c-0.015,-0.02,-0.045,-0.02,-0.06,0l-0.678,0.906C6.523,9.91,6.565,10,6.565,10zM4.967,10l0.425,0l-0.001,1.437c0,0.035,0.028,0.063,0.063,0.063l0.374,0c0.035,0,0.063,-0.028,0.063,-0.063l0,-1.537h0.394c0.034,0.04,0.053,0.002,0.033,-0.025l-0.641,-0.892c-0.015,-0.02,-0.045,-0.02,-0.06,0l-0.678,0.906C4.925,9.91,4.967,10,4.967,10zM7.853,11.8l-2.923,-0.001c-0.075,0,-0.136,0.061,-0.136,0.136l0,0.229c0,0.075,0.061,0.136,0.136,0.136l2.923,0.001c0.075,0,0.136,-0.061,0.136,-0.136l0,-0.229C7.988,11.861,7.927,11.8,7.853,11.8z" fill="#EAB765"/>
    <path d="M8.815,6H1.227c-0.131,0.071,-0.202,0.359,-0.213,0.5h7.988C8.996,6.323,8.911,6.044,8.815,6z" fill="#FFFFFF"/>
    <path d="M5.338,5l0.254,1.196l-0.005,1.672c0,-0.036,-0.067,0.032,-0.137,0.032l-0.82,0c-0.069,0,-0.137,-0.068,-0.137,-0.032l0.008,-1.672l0.3,-1.196L5.338,5zM4.929,12.3l2.923,0.001c0.075,0,0.136,-0.061,0.136,-0.136l0,-0.229c0,-0.075,-0.061,-0.136,-0.136,-0.136l-2.923,-0.001c-0.075,0,-0.136,0.061,-0.136,0.136l0,0.229C4.793,12.239,4.854,12.3,4.929,12.3zM5.619,8.983l-0.678,0.906c-0.015,0.022,0.026,0.112,0.026,0.112l0.425,0l-0.001,1.437c0,0.035,0.028,0.063,0.063,0.063l0.374,0c0.035,0,0.063,-0.028,0.063,-0.063l0,-1.537h0.394c0.034,0.04,0.053,0.002,0.033,-0.025l-0.641,-0.892C5.664,8.962,5.633,8.962,5.619,8.983zM7.216,8.983l-0.678,0.906c-0.015,0.022,0.026,0.111,0.026,0.111l0.425,0l-0.001,1.437c0,0.035,0.028,0.063,0.063,0.063l0.374,0c0.035,0,0.063,-0.028,0.063,-0.063l0,-1.537h0.394c0.034,0.041,0.053,0.003,0.033,-0.024l-0.641,-0.892C7.261,8.963,7.231,8.963,7.216,8.983z" fill-rule="evenodd" fill="#797979"/>
    <path d="M15.475,4c0.29,0,0.525,-0.235,0.525,-0.525V0.525c0,-0.29,-0.235,-0.525,-0.525,-0.525h-6.95C8.235,0,8,0.235,8,0.525v2.95c0,0.29,0.235,0.525,0.525,0.525H12v10L0.409,14.036c-0.226,0,-0.409,0.183,-0.409,0.409v1.146c0,0.226,0.183,0.409,0.409,0.409h15.182c0.226,0,0.409,-0.183,0.409,-0.409v-1.172c0,-0.232,-0.183,-0.419,-0.409,-0.419H13V4H15.475zM9,3V1h6v2H9z" fill-rule="evenodd" fill="#3E79B4"/>
    <rect x="9" y="1" width="6" height="2" fill-rule="evenodd" fill="#FFFFFF"/>
  </g>
</svg>
