<?xml version="1.0" encoding="UTF-8"?>
<!DOCTYPE svg PUBLIC "-//W3C//DTD SVG 1.1//EN" "http://www.w3.org/Graphics/SVG/1.1/DTD/svg11.dtd">
<svg version="1.1" id="Layer_1" xmlns="http://www.w3.org/2000/svg" xmlns:xlink="http://www.w3.org/1999/xlink" x="0px" y="0px" width="16px" height="16px" viewBox="0 0 16 16" enable-background="new 0 0 16 16" xml:space="preserve">
  <g id="icon">
    <path d="M15.9818,2.75v1.2318H0.0182V2.75c0,-0.3389,0.4111,-0.75,0.9136,-0.75h14.1364C15.5707,2,15.9818,2.4111,15.9818,2.75zM0.0182,6.9636h15.9636v5.9591c0,0.6661,-0.4111,1.0773,-0.9136,1.0773H0.9318c-0.5025,0,-0.9136,-0.4111,-0.9136,-1.0773V6.9636zM10.0314,10.5579c0,1.0959,0.8884,1.9843,1.9843,1.9843S14,11.6537,14,10.5579s-0.8884,-1.9843,-1.9843,-1.9843S10.0314,9.462,10.0314,10.5579zM5.5163,9.0145H2.4928c-0.2671,0,-0.4837,0.2166,-0.4837,0.4837s0.2166,0.4837,0.4837,0.4837h3.0236c0.2671,0,0.4837,-0.2166,0.4837,-0.4837S5.7834,9.0145,5.5163,9.0145z" fill="#D1D3D4"/>
    <rect y="4" width="16" height="3" fill="#58595B"/>
    <path d="M5.5163,9.9818H2.4928c-0.2671,0,-0.4837,-0.2166,-0.4837,-0.4837s0.2166,-0.4837,0.4837,-0.4837h3.0236c0.2671,0,0.4837,0.2166,0.4837,0.4837S5.7834,9.9818,5.5163,9.9818z" fill="#797979"/>
    <path d="M7.5163,11.0145H2.4928c-0.2671,0,-0.4837,0.2166,-0.4837,0.4837s0.2166,0.4837,0.4837,0.4837h5.0236c0.2671,0,0.4837,-0.2166,0.4837,-0.4837S7.7834,11.0145,7.5163,11.0145z" fill="#B4B4B5"/>
    <path d="M7.5163,11.9818H2.4928c-0.2671,0,-0.4837,-0.2166,-0.4837,-0.4837s0.2166,-0.4837,0.4837,-0.4837h5.0236c0.2671,0,0.4837,0.2166,0.4837,0.4837S7.7834,11.9818,7.5163,11.9818z" fill="#797979"/>
    <circle cx="12.0157" cy="10.5579" r="1.9843" fill="#797979"/>
  </g>
</svg>
