<?xml version="1.0" encoding="UTF-8"?>
<!DOCTYPE svg PUBLIC "-//W3C//DTD SVG 1.1//EN" "http://www.w3.org/Graphics/SVG/1.1/DTD/svg11.dtd">
<svg version="1.1" id="Layer_1" xmlns="http://www.w3.org/2000/svg" xmlns:xlink="http://www.w3.org/1999/xlink" x="0px" y="0px" width="16px" height="16px" viewBox="0 0 16 16" enable-background="new 0 0 16 16" xml:space="preserve">
  <g id="main">
    <clipPath id="clip_mask">
      <path d="M7,15.7051V8.2949C7,7.5809,7.5809,7,8.2949,7h1.7513h3.9077h1.7513c0.1016,0,0.2,0.013,0.2949,0.0352V0H0v16h7.0352C7.013,15.9051,7,15.8067,7,15.7051z"/>
    </clipPath>
    <g id="icon" clip-path="url(#clip_mask)">
      <path d="M13.6765,0H9.2428c-0.2052,0,-0.3987,0.0481,-0.5721,0.1315c-0.1009,0.0195,-0.1973,0.0684,-0.2755,0.1466L0.1562,8.5237c-0.2083,0.2084,-0.2083,0.5462,0,0.7546l5.5631,5.5654c0.2083,0.2084,0.546,0.2084,0.7543,0l8.239,-8.2457c0.061,-0.061,0.1036,-0.1333,0.1289,-0.2101c0.101,-0.187,0.1584,-0.401,0.1584,-0.6284V1.324C15,0.5928,14.4075,0,13.6765,0zM11.1053,7.2072l-0.6944,0.3024c-0.0138,0.006,-0.0284,0.0091,-0.0432,0.0091c-0.0441,0,-0.0835,-0.0263,-0.1004,-0.067c-0.1876,-0.4336,-0.4235,-0.8311,-0.7016,-1.1823l-0.0477,-0.0602l-1.4524,1.453l0.0222,0.0441c0.2253,0.4491,0.3712,0.8168,0.446,1.1243c0.0762,0.3139,0.08,0.6,0.0116,0.8747c-0.0676,0.272,-0.2162,0.5243,-0.4417,0.75c-0.3298,0.3299,-0.7212,0.4972,-1.1631,0.4972h0c-0.0429,0,-0.0869,-0.0016,-0.1309,-0.0047c-0.4353,-0.0308,-0.9159,-0.2239,-1.3898,-0.5586l-0.047,-0.0332l-0.3708,0.371c-0.0342,0.0341,-0.0796,0.053,-0.1279,0.053s-0.0937,-0.0188,-0.1279,-0.053l-0.3965,-0.3967c-0.0705,-0.0705,-0.0705,-0.1853,0,-0.2559l0.3281,-0.3282l-0.0462,-0.0484c-0.2427,-0.2539,-0.4305,-0.4801,-0.6279,-0.7564c-0.2269,-0.3177,-0.3879,-0.6039,-0.4785,-0.8507c-0.0167,-0.0446,-0.0059,-0.0945,0.0273,-0.1278l0.5754,-0.5756c0.0227,-0.0227,0.0527,-0.0353,0.0845,-0.0353c0.05,0,0.0941,0.0299,0.1123,0.0762c0.1106,0.2885,0.2715,0.5963,0.4803,0.9204c0.1606,0.2496,0.3297,0.4736,0.5026,0.6656l0.0482,0.0536l1.4805,-1.481l-0.022,-0.0441c-0.3188,-0.6374,-0.4695,-1.1483,-0.4609,-1.5619c0.0093,-0.4515,0.1929,-0.8593,0.5455,-1.2121c0.3045,-0.3046,0.673,-0.459,1.0953,-0.459c0.0564,0,0.1145,0.0028,0.1728,0.0083c0.4435,0.0419,0.8713,0.2207,1.3079,0.5465l0.0474,0.0354l0.2905,-0.2906c0.0341,-0.0342,0.0795,-0.053,0.1279,-0.053c0.0483,0,0.0937,0.0188,0.1279,0.053l0.3965,0.3967c0.0342,0.0342,0.053,0.0796,0.053,0.1279s-0.0188,0.0938,-0.053,0.1279l-0.2763,0.2764l0.0423,0.0482c0.3775,0.4291,0.7083,0.9548,0.9314,1.48C11.1846,7.1225,11.1592,7.1837,11.1053,7.2072zM12.4096,3.7008c-0.545,0,-0.9867,-0.4399,-0.9867,-0.9826c0,-0.5427,0.4418,-0.9826,0.9867,-0.9826c0.545,0,0.9867,0.4399,0.9867,0.9826C13.3963,3.2609,12.9545,3.7008,12.4096,3.7008zM8.7758,5.5458l0.0686,0.0464L7.6452,6.792l-0.0413,-0.0883c-0.1331,-0.284,-0.15,-0.4601,-0.1483,-0.6081c0.0022,-0.2046,0.083,-0.3879,0.24,-0.5449c0.1292,-0.1293,0.295,-0.1949,0.4925,-0.1949c0.0144,0,0.029,0.0004,0.0436,0.001C8.4032,5.3646,8.5337,5.382,8.7758,5.5458zM7.3171,8.538c0.1195,0.2751,0.1776,0.4914,0.1776,0.6614c0,0.1919,-0.0763,0.3655,-0.2268,0.516c-0.1384,0.1385,-0.3133,0.2117,-0.5056,0.2117c-0.1923,0,-0.4057,-0.0715,-0.6345,-0.2124l-0.0737,-0.0454l1.223,-1.2234L7.3171,8.538z" fill-rule="evenodd" fill="#4EA17E"/>
      <path d="M6.9404,10.9524c-0.0429,0,-0.0869,-0.0016,-0.1309,-0.0047c-0.4353,-0.0308,-0.9159,-0.2239,-1.3898,-0.5586l-0.047,-0.0332l-0.3708,0.371c-0.0342,0.0341,-0.0796,0.053,-0.1279,0.053s-0.0937,-0.0188,-0.1279,-0.053l-0.3965,-0.3967c-0.0705,-0.0705,-0.0705,-0.1853,0,-0.2559l0.3281,-0.3282l-0.0462,-0.0484c-0.2427,-0.2539,-0.4305,-0.4801,-0.6279,-0.7564c-0.2269,-0.3177,-0.3879,-0.6039,-0.4785,-0.8507c-0.0167,-0.0446,-0.0059,-0.0945,0.0273,-0.1278l0.5754,-0.5756c0.0227,-0.0227,0.0527,-0.0353,0.0845,-0.0353c0.05,0,0.0941,0.0299,0.1123,0.0762c0.1106,0.2885,0.2715,0.5963,0.4803,0.9204c0.1606,0.2496,0.3297,0.4736,0.5026,0.6656l0.0482,0.0536l1.4805,-1.481l-0.022,-0.0441c-0.3188,-0.6374,-0.4695,-1.1483,-0.4609,-1.5619c0.0093,-0.4515,0.1929,-0.8593,0.5455,-1.2121c0.3045,-0.3046,0.673,-0.459,1.0953,-0.459c0.0564,0,0.1145,0.0028,0.1728,0.0083c0.4435,0.0419,0.8713,0.2207,1.3079,0.5465l0.0474,0.0354l0.2905,-0.2906c0.0341,-0.0342,0.0795,-0.053,0.1279,-0.053c0.0483,0,0.0937,0.0188,0.1279,0.053l0.3965,0.3967c0.0342,0.0342,0.053,0.0796,0.053,0.1279s-0.0188,0.0938,-0.053,0.1279l-0.2763,0.2764l0.0423,0.0482c0.3775,0.4291,0.7083,0.9548,0.9314,1.48c0.022,0.0561,-0.0033,0.1174,-0.0572,0.1408l-0.6944,0.3024c-0.0138,0.006,-0.0284,0.0091,-0.0432,0.0091c-0.0441,0,-0.0835,-0.0263,-0.1004,-0.067c-0.1876,-0.4336,-0.4235,-0.8311,-0.7016,-1.1823l-0.0477,-0.0602l-1.4524,1.453l0.0222,0.0441c0.2253,0.4491,0.3712,0.8168,0.446,1.1243c0.0762,0.3139,0.08,0.6,0.0116,0.8747c-0.0676,0.272,-0.2162,0.5243,-0.4417,0.75C7.7737,10.785,7.3823,10.9524,6.9404,10.9524L6.9404,10.9524zM6.0541,9.6692l0.0737,0.0454c0.2288,0.141,0.4422,0.2124,0.6345,0.2124c0.1924,0,0.3672,-0.0732,0.5056,-0.2117c0.1505,-0.1505,0.2268,-0.3241,0.2268,-0.516c-0.0001,-0.1699,-0.0582,-0.3863,-0.1776,-0.6614l-0.04,-0.0922L6.0541,9.6692zM8.188,5.3557c-0.1975,0,-0.3633,0.0656,-0.4925,0.1949c-0.157,0.157,-0.2378,0.3403,-0.24,0.5449c-0.0016,0.148,0.0152,0.3242,0.1483,0.6081l0.0413,0.0883l1.1992,-1.1997l-0.0686,-0.0464c-0.2421,-0.1638,-0.3726,-0.1812,-0.5442,-0.1891C8.217,5.3561,8.2024,5.3557,8.188,5.3557z" fill="#FFFFFF"/>
    </g>
    <g id="overlay">
      <g>
        <path d="M15.7051,8h-2.7513v1.9769h-1.9077V8H8.2949C8.132,8,8,8.132,8,8.2949v7.4103c0,0.1629,0.132,0.2949,0.2949,0.2949h7.4103c0.1629,0,0.2949,-0.132,0.2949,-0.2949V8.2949C16,8.132,15.868,8,15.7051,8zM15,14.4051c0,0.2891,-0.205,0.5257,-0.4556,0.5257H9.4556c-0.2506,0,-0.4556,-0.2366,-0.4556,-0.5257v-2.864c0,-0.2891,0.205,-0.5257,0.4556,-0.5257h5.0888c0.2506,0,0.4556,0.2365,0.4556,0.5257V14.4051z" fill-rule="evenodd" fill="#EAB765"/>
        <rect x="11.0462" y="8" width="1.9077" height="1.9769" fill-rule="evenodd" fill="#939598"/>
        <path d="M14.3166,14.9308H9.6834c-0.3759,0,-0.6834,-0.3075,-0.6834,-0.6834v-2.5486c0,-0.3759,0.3075,-0.6834,0.6834,-0.6834h4.6333c0.3759,0,0.6834,0.3075,0.6834,0.6834v2.5486C15,14.6233,14.6925,14.9308,14.3166,14.9308z" fill="#FFFFFF"/>
        <path d="M10.0058,14.1615h-0.1449c-0.1073,0,-0.1942,-0.087,-0.1942,-0.1942v-1.9885c0,-0.1073,0.087,-0.1942,0.1942,-0.1942h0.1449c0.1073,0,0.1942,0.087,0.1942,0.1942v1.9885C10.2,14.0746,10.113,14.1615,10.0058,14.1615zM14.3333,13.9673v-1.9885c0,-0.1073,-0.087,-0.1942,-0.1942,-0.1942h-0.1449c-0.1073,0,-0.1942,0.087,-0.1942,0.1942v1.9885c0,0.1073,0.087,0.1942,0.1942,0.1942h0.1449C14.2464,14.1615,14.3333,14.0746,14.3333,13.9673zM11.3449,11.7846h-0.1565c-0.2145,0,-0.3884,0.1739,-0.3884,0.3884v0.9847c0,0.2145,0.1739,0.3884,0.3884,0.3884h0.1565c0.2145,0,0.3884,-0.1739,0.3884,-0.3884v-0.9847C11.7333,11.9585,11.5594,11.7846,11.3449,11.7846zM12.8782,11.7846h-0.1565c-0.2145,0,-0.3884,0.1739,-0.3884,0.3884v0.9847c0,0.2145,0.1739,0.3884,0.3884,0.3884h0.1565c0.2145,0,0.3884,-0.1739,0.3884,-0.3884v-0.9847C13.2667,11.9585,13.0928,11.7846,12.8782,11.7846z" fill="#6D6E71"/>
        <path d="M11.5987,14.1615h-0.6641c-0.0744,0,-0.1346,-0.0603,-0.1346,-0.1346v-0.1154c0,-0.0744,0.0603,-0.1346,0.1346,-0.1346h0.6641c0.0744,0,0.1346,0.0603,0.1346,0.1346v0.1154C11.7333,14.1013,11.6731,14.1615,11.5987,14.1615zM13.2667,14.0269v-0.1154c0,-0.0744,-0.0603,-0.1346,-0.1346,-0.1346h-0.6641c-0.0744,0,-0.1346,0.0603,-0.1346,0.1346v0.1154c0,0.0744,0.0603,0.1346,0.1346,0.1346h0.6641C13.2064,14.1615,13.2667,14.1013,13.2667,14.0269z" fill="#939598"/>
      </g>
    </g>
  </g>
</svg>
