<?xml version="1.0" encoding="UTF-8"?>
<!DOCTYPE svg PUBLIC "-//W3C//DTD SVG 1.1//EN" "http://www.w3.org/Graphics/SVG/1.1/DTD/svg11.dtd">
<svg version="1.1" id="Layer_1" xmlns="http://www.w3.org/2000/svg" xmlns:xlink="http://www.w3.org/1999/xlink" x="0px" y="0px" width="16px" height="16px" viewBox="0 0 16 16" enable-background="new 0 0 16 16" xml:space="preserve">
  <g id="icon">
    <path d="M7.9951,6.3622c0,0.1302,-0.1098,0.2357,-0.2454,0.2357H6.0595c-0.1355,0,-0.2453,-0.1055,-0.2453,-0.2357V4.0069l-5.779,0.0017L0,15.4519c-0.0009,0.2898,0.2434,0.5253,0.5452,0.5253h12.4387V4.0047l-4.9888,0.0015V6.3622zM10,9.6834v4.6333c0,0.3758,-0.3075,0.6834,-0.6834,0.6834H1.6834c-0.3759,0,-0.6834,-0.3075,-0.6834,-0.6834V9.6834C1,9.3075,1.3075,9,1.6834,9h7.6333C9.6925,9,10,9.3075,10,9.6834zM15.9918,1.7353v10.6055c0,0.0949,-0.0269,0.188,-0.0777,0.2694l-1.9032,3.0088V3.7002l1.9794,-1.9934C15.9908,1.7163,15.9918,1.7257,15.9918,1.7353zM6.3367,3.0085L0.4614,3.0103l3.0415,-1.9228c0.0852,-0.0496,0.183,-0.0759,0.2827,-0.0759h5.7089L6.3367,3.0085zM15.3763,1.0131l-2.1795,1.9934L8.357,3.0079l2.1825,-1.9963h4.8071C15.3566,1.0116,15.3664,1.0125,15.3763,1.0131z" fill="#EAB765"/>
    <path d="M13.9382,15.7458l0.0727,-0.104V3.7002l1.9794,-1.9934L16,1.6937c-0.015,-0.2664,-0.3367,-0.6793,-0.614,-0.6937l-0.0097,0.0131l-2.1795,1.9934L0.4367,3.0103l-0.1691,0.1124c-0.1625,0.0946,-0.2619,0.3637,-0.2625,0.5462l-0.0005,0.3397l12.9792,-0.0038V16h0.2868C13.4622,16,13.8396,15.9035,13.9382,15.7458z" fill="#FFFFFF"/>
    <path d="M10.5395,1.0116l-2.5444,2.444v2.9066c0,0.1302,-0.1098,0.2357,-0.2454,0.2357H6.0595c-0.1355,0,-0.2454,-0.1055,-0.2454,-0.2357V3.4556l3.6803,-2.444H10.5395z" fill-rule="evenodd" fill="#939598"/>
    <path d="M9.3166,15H1.6834c-0.3759,0,-0.6834,-0.3075,-0.6834,-0.6834V9.6834C1,9.3075,1.3075,9,1.6834,9h7.6333c0.3759,0,0.6834,0.3075,0.6834,0.6834v4.6333C10,14.6925,9.6925,15,9.3166,15z" fill="#FFFFFF"/>
    <path d="M2.6058,14h-0.4116C2.087,14,2,13.913,2,13.8058v-3.6116c0,-0.1073,0.087,-0.1942,0.1942,-0.1942h0.4116c0.1073,0,0.1942,0.087,0.1942,0.1942v3.6116C2.8,13.913,2.713,14,2.6058,14zM9,13.8058v-3.6116c0,-0.1073,-0.087,-0.1942,-0.1942,-0.1942h-0.4116C8.287,10,8.2,10.087,8.2,10.1942v3.6116c0,0.1073,0.087,0.1942,0.1942,0.1942h0.4116C8.913,14,9,13.913,9,13.8058zM4.7116,10h-0.6231c-0.2145,0,-0.3884,0.1739,-0.3884,0.3884v2.4231c0,0.2145,0.1739,0.3884,0.3884,0.3884h0.6231c0.2145,0,0.3884,-0.1739,0.3884,-0.3884v-2.4231C5.1,10.1739,4.9261,10,4.7116,10zM7.0116,10h-0.6231c-0.2145,0,-0.3884,0.1739,-0.3884,0.3884v2.4231c0,0.2145,0.1739,0.3884,0.3884,0.3884h0.6231c0.2145,0,0.3884,-0.1739,0.3884,-0.3884v-2.4231C7.4,10.1739,7.2261,10,7.0116,10z" fill="#6D6E71"/>
    <path d="M4.9654,14H3.8346c-0.0744,0,-0.1346,-0.0603,-0.1346,-0.1346v-0.2307c0,-0.0744,0.0603,-0.1346,0.1346,-0.1346h1.1307c0.0744,0,0.1346,0.0603,0.1346,0.1346v0.2307C5.1,13.9397,5.0397,14,4.9654,14zM7.4,13.8654v-0.2307c0,-0.0744,-0.0603,-0.1346,-0.1346,-0.1346H6.1346c-0.0744,0,-0.1346,0.0603,-0.1346,0.1346v0.2307c0,0.0744,0.0603,0.1346,0.1346,0.1346h1.1307C7.3397,14,7.4,13.9397,7.4,13.8654z" fill="#939598"/>
  </g>
</svg>
