<?xml version="1.0" encoding="UTF-8"?>
<!DOCTYPE svg PUBLIC "-//W3C//DTD SVG 1.1//EN" "http://www.w3.org/Graphics/SVG/1.1/DTD/svg11.dtd">
<svg version="1.1" id="Layer_1" xmlns="http://www.w3.org/2000/svg" xmlns:xlink="http://www.w3.org/1999/xlink" x="0px" y="0px" width="32px" height="32px" viewBox="0 0 32 32" enable-background="new 0 0 32 32" xml:space="preserve">
  <g id="icon">
    <path d="M28.9281,8.2931H7.0719c-0.3313,0.253,-0.6433,0.6588,-0.6433,1.0908V14h13.5881C21.112,14,22,14.888,22,15.9833v8.5905h6.1829c0.703,0,1.3886,-0.6024,1.3886,-1.3456V9.3839C29.5714,8.9518,29.2594,8.5461,28.9281,8.2931z" fill="#FFFFFF"/>
    <path d="M26.575,14h-6.5583C21.112,14,22,14.888,22,15.9833V21h4.575c0.2347,0,0.425,-0.1903,0.425,-0.425v-6.15C27,14.1903,26.8097,14,26.575,14z" fill="#529FBF"/>
    <path d="M6,14v-2.4c0.2463,0.2261,0.6368,0.4054,0.9571,0.5226V14H6zM29.0429,12.1237v11.0296c0,0.5192,-0.5068,0.9071,-0.96,0.9071H22V25h6.1828c0.968,0,1.8172,-0.8168,1.8172,-1.748V11.6027C29.7536,11.8282,29.3631,12.007,29.0429,12.1237z" fill="#797979"/>
    <path d="M25.7726,7.3695v1.574c0,1.4428,-1.1687,2.6233,-2.597,2.6233c-1.4284,0,-2.597,-1.1805,-2.597,-2.6233V7.422l-1.2985,-6.3886h2.597l3.8612,6.3362H25.7726zM10.2248,7.3695h-0.0343v1.574c0,1.4428,1.1687,2.6233,2.597,2.6233s2.597,-1.1805,2.597,-2.6233V7.422l1.2985,-6.3886h-2.597L10.2248,7.3695z" fill="#D1D3D4"/>
    <path d="M31,7.3695v1.574c0,1.4428,-1.17,2.6233,-2.6,2.6233c-1.43,0,-2.6,-1.1805,-2.6,-2.6233V7.422l-3.9,-6.3886h2.6l6.4427,6.3362H31zM5.0573,7.3695H5v1.574c0,1.4428,1.17,2.6233,2.6,2.6233c1.43,0,2.6,-1.1805,2.6,-2.6233V7.422l3.9,-6.3886h-2.6L5.0573,7.3695zM19.3,1.0333h-2.6l-1.2885,6.3362H15.4v1.574c0,1.4428,1.17,2.6233,2.6,2.6233s2.6,-1.1805,2.6,-2.6233v-1.574h-0.0115L19.3,1.0333z" fill="#3E79B4"/>
    <g>
      <path d="M21.7913,29H1.2348c-0.1291,0,-0.2348,0.1075,-0.2348,0.2313v0.0031C1,29.9288,2.1537,31,2.8783,31H20.187c0.7246,0,1.8783,-1.0681,1.8783,-1.7625v-0.0063C22.0652,29.1075,21.9204,29,21.7913,29z" fill="#B4B4B5"/>
      <path d="M19.9038,15H3.0962C2.4908,15,2,15.4701,2,16.05v11.9c0,0.5799,0.4908,1.05,1.0962,1.05h16.8077c0.6054,0,1.0962,-0.4701,1.0962,-1.05v-11.9C21,15.4701,20.5092,15,19.9038,15zM19.5,27.5H3.5V16.5h16V27.5z" fill="#797979"/>
      <rect x="3.5" y="16.5" width="16" height="11" fill="#FFFFFF"/>
    </g>
    <path d="M13.8572,20.9579l-4.6378,-1.5903c-0.3172,-0.1231,-0.3661,-0.0783,-0.2499,0.2496l1.6038,4.6212c0.1321,0.3417,0.3047,0.3425,0.5192,-0.0071l0.808,-1.3222l1.6766,1.661c0.1734,0.1732,0.783,-0.4537,0.6096,-0.6269l-1.6602,-1.6595l1.3236,-0.8071C14.2303,21.2302,14.2303,21.0899,13.8572,20.9579z" fill-rule="evenodd" fill="#797979"/>
  </g>
</svg>
