<?xml version="1.0" encoding="UTF-8"?>
<!DOCTYPE svg PUBLIC "-//W3C//DTD SVG 1.1//EN" "http://www.w3.org/Graphics/SVG/1.1/DTD/svg11.dtd">
<svg version="1.1" id="Layer_1" xmlns="http://www.w3.org/2000/svg" xmlns:xlink="http://www.w3.org/1999/xlink" x="0px" y="0px" width="16px" height="16px" viewBox="0 0 16 16" enable-background="new 0 0 16 16" xml:space="preserve">
  <g id="icon">
    <path d="M14.0313,2.6563H4.9688c-0.4142,0,-0.75,0.3358,-0.75,0.75V6h6.2396C11.3098,6,12,6.6902,12,7.5417v4.0521h2.0313c0.4142,0,0.75,-0.3358,0.75,-0.75V3.4063C14.7813,2.992,14.4455,2.6563,14.0313,2.6563z" fill="#FFFFFF"/>
    <g>
      <path d="M4.9857,6v-0.5509c-0.1007,0.0251,-0.4057,0.0398,-0.5143,0.0398c-0.1666,0,-0.3256,-0.032,-0.4714,-0.0889v0.6H4.9857z" fill="#797979"/>
      <path d="M14.5286,5.4889c-0.1086,0,-0.4136,-0.0147,-0.5143,-0.0398v5.4248c0,0.1021,-0.0774,0.126,-0.2143,0.126h-1.8v1h2.0179c0.5416,0,0.9821,-0.4154,0.9821,-0.926V5.4C14.8542,5.4569,14.6952,5.4889,14.5286,5.4889z" fill="#797979"/>
    </g>
    <path d="M12.575,6h-2.1167C11.3098,6,12,6.6902,12,7.5417V9h0.575c0.2347,0,0.425,-0.1903,0.425,-0.425v-2.15C13,6.1903,12.8097,6,12.575,6z" fill="#529FBF"/>
    <path d="M13.4,2.3907v0.866C13.4,4.0505,12.815,4.7,12.1,4.7c-0.715,0,-1.3,-0.6495,-1.3,-1.4433v-0.8371L10.15,0h1.3l1.9328,2.3907H13.4zM5.6172,2.3907H5.6v0.866C5.6,4.0505,6.185,4.7,6.9,4.7s1.3,-0.6495,1.3,-1.4433v-0.8371L8.85,0h-1.3L5.6172,2.3907z" fill="#D1D3D4"/>
    <path d="M16,2.3907v0.866C16,4.0505,15.415,4.7,14.7,4.7c-0.715,0,-1.3,-0.6495,-1.3,-1.4433v-0.8371L11.45,0h1.3l3.2214,2.3907H16zM3.0286,2.3907H3v0.866C3,4.0505,3.585,4.7,4.3,4.7c0.715,0,1.3,-0.6495,1.3,-1.4433v-0.8371L7.55,0h-1.3L3.0286,2.3907zM10.15,0h-1.3l-0.6443,2.3907H8.2v0.866C8.2,4.0505,8.785,4.7,9.5,4.7s1.3,-0.6495,1.3,-1.4433v-0.866h-0.0057L10.15,0z" fill="#3E79B4"/>
    <g>
      <path d="M10.3654,7H0.6346C0.2841,7,0,7.3022,0,7.675v7.65c0,0.3728,0.2841,0.675,0.6346,0.675h9.7308c0.3505,0,0.6346,-0.3022,0.6346,-0.675v-7.65C11,7.3022,10.7159,7,10.3654,7zM10,15H1V8h9V15z" fill="#797979"/>
      <rect x="1" y="8" width="9" height="7" fill="#FFFFFF"/>
    </g>
    <path d="M7.2335,10.6524L3.8024,9.346c-0.2347,-0.1011,-0.2709,-0.0643,-0.1849,0.205l1.1865,3.7963c0.0977,0.2807,0.2255,0.2814,0.3841,-0.0058l0.5978,-1.0862l1.2404,1.3645c0.1283,0.1423,0.5793,-0.3727,0.451,-0.515L6.249,11.7416l0.9792,-0.6631C7.5096,10.8762,7.5096,10.7609,7.2335,10.6524z" fill-rule="evenodd" fill="#797979"/>
  </g>
</svg>
