<?xml version="1.0" encoding="UTF-8"?>
<!DOCTYPE svg PUBLIC "-//W3C//DTD SVG 1.1//EN" "http://www.w3.org/Graphics/SVG/1.1/DTD/svg11.dtd">
<svg version="1.1" id="Layer_1" xmlns="http://www.w3.org/2000/svg" xmlns:xlink="http://www.w3.org/1999/xlink" x="0px" y="0px" width="16px" height="16px" viewBox="0 0 16 16" enable-background="new 0 0 16 16" xml:space="preserve">
  <g id="icon">
    <path d="M13.2993,0.1799l0.5479,0.5479c0.1523,0.1523,0.1523,0.3992,0,0.5515L8.8379,6.2886c-0.1523,0.1523,-0.3992,0.1523,-0.5515,0l-0.5479,-0.5479c-0.1523,-0.1523,-0.1523,-0.3992,0,-0.5515l5.0092,-5.0092C12.9001,0.0276,13.147,0.0276,13.2993,0.1799z" fill="#6D6E71"/>
    <path d="M0.9953,8l0.9071,7.4012c0.0499,0.3415,0.3388,0.5988,0.6791,0.5988h10.8469c0.3371,0,0.6244,-0.2539,0.6778,-0.5916L15.0458,8H0.9953zM6,11.7c0,0.2129,-0.1902,0.3,-0.4,0.3H4.3799c-0.2098,0,-0.3799,-0.0871,-0.3799,-0.3v-1.2812c0,-0.2129,0.1701,-0.4188,0.3799,-0.4188H5.6c0.2098,0,0.4,0.2059,0.4,0.4188V11.7zM9,11.7c0,0.2129,-0.1902,0.3,-0.4,0.3H7.3799c-0.2098,0,-0.3799,-0.0871,-0.3799,-0.3v-1.2812c0,-0.2129,0.1701,-0.4188,0.3799,-0.4188H8.6c0.2098,0,0.4,0.2059,0.4,0.4188V11.7zM12,11.7c0,0.2129,-0.1902,0.3,-0.4,0.3h-1.2201c-0.2098,0,-0.3799,-0.0871,-0.3799,-0.3v-1.2812c0,-0.2129,0.1701,-0.4188,0.3799,-0.4188H11.6c0.2098,0,0.4,0.2059,0.4,0.4188V11.7zM6,14.7c0,0.2129,-0.1902,0.3,-0.4,0.3H4.3799c-0.2098,0,-0.3799,-0.0871,-0.3799,-0.3v-1.2812c0,-0.2129,0.1701,-0.4188,0.3799,-0.4188H5.6c0.2098,0,0.4,0.2059,0.4,0.4188V14.7zM9,14.7c0,0.2129,-0.1902,0.3,-0.4,0.3H7.3799c-0.2098,0,-0.3799,-0.0871,-0.3799,-0.3v-1.2812c0,-0.2129,0.1701,-0.4188,0.3799,-0.4188H8.6c0.2098,0,0.4,0.2059,0.4,0.4188V14.7zM12,14.7c0,0.2129,-0.1902,0.3,-0.4,0.3h-1.2201c-0.2098,0,-0.3799,-0.0871,-0.3799,-0.3v-1.2812c0,-0.2129,0.1701,-0.4188,0.3799,-0.4188H11.6c0.2098,0,0.4,0.2059,0.4,0.4188V14.7z" fill="#CD4C32"/>
    <path d="M0.5,7h14.9827c0.2761,0,0.5,-0.2239,0.5,-0.5V5.5c0,-0.2761,-0.2239,-0.5,-0.5,-0.5H0.5c-0.2761,0,-0.5,0.2239,-0.5,0.5l0,1C0,6.7761,0.2239,7,0.5,7z" fill="#CD4C32"/>
    <circle cx="8.0142" cy="5.996" r="0.5831" fill="#6D6E71"/>
  </g>
</svg>
