<?xml version="1.0" encoding="UTF-8"?>
<!DOCTYPE svg PUBLIC "-//W3C//DTD SVG 1.1//EN" "http://www.w3.org/Graphics/SVG/1.1/DTD/svg11.dtd">
<svg version="1.1" id="Layer_1" xmlns="http://www.w3.org/2000/svg" xmlns:xlink="http://www.w3.org/1999/xlink" x="0px" y="0px" width="32px" height="32px" viewBox="0 0 32 32" enable-background="new 0 0 32 32" xml:space="preserve">
  <g id="icon">
    <path d="M25.6872,2.0928l1.5184,1.5184c0.1523,0.1523,0.1523,0.3992,0,0.5515l-9.9179,9.9179c-0.1523,0.1523,-0.3992,0.1523,-0.5515,0l-1.5184,-1.5184c-0.1523,-0.1523,-0.1523,-0.3992,0,-0.5515l9.9179,-9.9179C25.2879,1.9405,25.5349,1.9405,25.6872,2.0928z" fill="#6D6E71"/>
    <path d="M2.7656,16l1.7079,11.8911C4.5674,28.5248,5.1113,29,5.752,29h20.4218c0.6347,0,1.1755,-0.4689,1.2761,-1.0956L29.2188,16H2.7656zM9.1,25.5402c0,0.3092,-0.2506,0.5598,-0.5598,0.5598H6.9598c-0.3092,0,-0.5598,-0.2506,-0.5598,-0.5598v-1.5803c0,-0.3092,0.2506,-0.5598,0.5598,-0.5598h1.5803c0.3092,0,0.5598,0.2506,0.5598,0.5598V25.5402zM9.1,21.5402c0,0.3092,-0.2506,0.5598,-0.5598,0.5598H6.9598c-0.3092,0,-0.5598,-0.2506,-0.5598,-0.5598v-1.5803c0,-0.3092,0.2506,-0.5598,0.5598,-0.5598h1.5803c0.3092,0,0.5598,0.2506,0.5598,0.5598V21.5402zM13.2,25.5402c0,0.3092,-0.2506,0.5598,-0.5598,0.5598h-1.5803c-0.3092,0,-0.5598,-0.2506,-0.5598,-0.5598v-1.5803c0,-0.3092,0.2506,-0.5598,0.5598,-0.5598h1.5803c0.3092,0,0.5598,0.2506,0.5598,0.5598V25.5402zM13.2,21.5402c0,0.3092,-0.2506,0.5598,-0.5598,0.5598h-1.5803c-0.3092,0,-0.5598,-0.2506,-0.5598,-0.5598v-1.5803c0,-0.3092,0.2506,-0.5598,0.5598,-0.5598h1.5803c0.3092,0,0.5598,0.2506,0.5598,0.5598V21.5402zM17.4,25.5402c0,0.3092,-0.2506,0.5598,-0.5598,0.5598h-1.5803c-0.3092,0,-0.5598,-0.2506,-0.5598,-0.5598v-1.5803c0,-0.3092,0.2506,-0.5598,0.5598,-0.5598h1.5803c0.3092,0,0.5598,0.2506,0.5598,0.5598V25.5402zM17.4,21.5402c0,0.3092,-0.2506,0.5598,-0.5598,0.5598h-1.5803c-0.3092,0,-0.5598,-0.2506,-0.5598,-0.5598v-1.5803c0,-0.3092,0.2506,-0.5598,0.5598,-0.5598h1.5803c0.3092,0,0.5598,0.2506,0.5598,0.5598V21.5402zM21.4,25.5402c0,0.3092,-0.2506,0.5598,-0.5598,0.5598h-1.5803c-0.3092,0,-0.5598,-0.2506,-0.5598,-0.5598v-1.5803c0,-0.3092,0.2506,-0.5598,0.5598,-0.5598h1.5803c0.3092,0,0.5598,0.2506,0.5598,0.5598V25.5402zM21.4,21.5402c0,0.3092,-0.2506,0.5598,-0.5598,0.5598h-1.5803c-0.3092,0,-0.5598,-0.2506,-0.5598,-0.5598v-1.5803c0,-0.3092,0.2506,-0.5598,0.5598,-0.5598h1.5803c0.3092,0,0.5598,0.2506,0.5598,0.5598V21.5402zM25.5,25.5402c0,0.3092,-0.2506,0.5598,-0.5598,0.5598h-1.5803c-0.3092,0,-0.5598,-0.2506,-0.5598,-0.5598v-1.5803c0,-0.3092,0.2506,-0.5598,0.5598,-0.5598h1.5803c0.3092,0,0.5598,0.2506,0.5598,0.5598V25.5402zM25.5,21.5402c0,0.3092,-0.2506,0.5598,-0.5598,0.5598h-1.5803c-0.3092,0,-0.5598,-0.2506,-0.5598,-0.5598v-1.5803c0,-0.3092,0.2506,-0.5598,0.5598,-0.5598h1.5803c0.3092,0,0.5598,0.2506,0.5598,0.5598V21.5402z" fill="#CD4C32"/>
    <path d="M1.5,15h28.9827c0.2761,0,0.5,-0.2239,0.5,-0.5v-2.9715c0,-0.2761,-0.2239,-0.5,-0.5,-0.5H1.5c-0.2761,0,-0.5,0.2239,-0.5,0.5V14.5C1,14.7761,1.2239,15,1.5,15z" fill="#CD4C32"/>
    <circle cx="15.9802" cy="13.2863" r="1.0977" fill="#6D6E71"/>
  </g>
</svg>
