<?xml version="1.0" encoding="UTF-8"?>
<!DOCTYPE svg PUBLIC "-//W3C//DTD SVG 1.1//EN" "http://www.w3.org/Graphics/SVG/1.1/DTD/svg11.dtd">
<svg version="1.1" id="Layer_1" xmlns="http://www.w3.org/2000/svg" xmlns:xlink="http://www.w3.org/1999/xlink" x="0px" y="0px" width="16px" height="16px" viewBox="0 0 16 16" enable-background="new 0 0 16 16" xml:space="preserve">
  <g id="icon">
    <path d="M12.983,15.5H2.017C1.182,15.5,0.5,14.818,0.5,13.983V2.017C0.5,1.182,1.182,0.5,2.017,0.5h10.967C13.818,0.5,14.5,1.182,14.5,2.017v11.967C14.5,14.818,13.818,15.5,12.983,15.5z" fill="#FFFFFF"/>
    <path d="M12.983,16H2.017C0.905,16,0,15.095,0,13.983V2.017C0,0.905,0.905,0,2.017,0h10.967C14.095,0,15,0.905,15,2.017v11.967C15,15.095,14.095,16,12.983,16zM2.017,1C1.456,1,1,1.456,1,2.017v11.967c0,0.561,0.456,1.017,1.017,1.017h10.967c0.561,0,1.017,-0.456,1.017,-1.017V2.017c0,-0.561,-0.456,-1.017,-1.017,-1.017H2.017z" fill="#797979"/>
    <path d="M5,2.7H3.9v3.3h-0.8V2.7H2v-0.7h3V2.7zM8.9,3.999c0,0.286,-0.046,0.551,-0.138,0.796c-0.092,0.245,-0.221,0.456,-0.388,0.634c-0.167,0.178,-0.368,0.318,-0.603,0.419C7.536,5.949,7.276,6,6.99,6c-0.286,0,-0.547,-0.051,-0.782,-0.152c-0.235,-0.102,-0.436,-0.241,-0.604,-0.419c-0.168,-0.178,-0.298,-0.389,-0.39,-0.634c-0.092,-0.244,-0.138,-0.51,-0.138,-0.796c0,-0.286,0.046,-0.551,0.138,-0.794c0.092,-0.244,0.222,-0.454,0.39,-0.633c0.168,-0.178,0.369,-0.318,0.604,-0.419C6.443,2.051,6.703,2,6.99,2c0.286,0,0.547,0.051,0.782,0.152c0.235,0.102,0.436,0.242,0.603,0.421c0.167,0.179,0.297,0.39,0.388,0.634C8.854,3.451,8.9,3.715,8.9,3.999zM8.111,3.999c0,-0.205,-0.026,-0.389,-0.077,-0.552c-0.051,-0.163,-0.126,-0.301,-0.222,-0.415c-0.097,-0.114,-0.214,-0.201,-0.352,-0.262c-0.138,-0.06,-0.294,-0.09,-0.469,-0.09c-0.175,0,-0.332,0.03,-0.471,0.09c-0.139,0.06,-0.257,0.147,-0.354,0.262c-0.097,0.114,-0.171,0.253,-0.222,0.415c-0.051,0.163,-0.077,0.347,-0.077,0.552c0,0.207,0.026,0.392,0.077,0.554c0.051,0.163,0.126,0.301,0.222,0.414c0.097,0.113,0.215,0.2,0.354,0.26c0.139,0.06,0.296,0.09,0.471,0.09c0.175,0,0.331,-0.03,0.469,-0.09c0.138,-0.06,0.255,-0.147,0.352,-0.26c0.097,-0.113,0.171,-0.251,0.222,-0.414C8.085,4.39,8.111,4.205,8.111,3.999z" fill="#58595B"/>
    <path d="M12.9,3h-2.8c-0.055,0,-0.1,-0.045,-0.1,-0.1v-0.8c0,-0.055,0.045,-0.1,0.1,-0.1h2.8c0.055,0,0.1,0.045,0.1,0.1v0.8C13,2.955,12.955,3,12.9,3zM12.9,5h-2.8c-0.055,0,-0.1,-0.045,-0.1,-0.1v-0.8c0,-0.055,0.045,-0.1,0.1,-0.1h2.8c0.055,0,0.1,0.045,0.1,0.1v0.8C13,4.955,12.955,5,12.9,5zM12.933,8H2.1c-0.055,0,-0.1,-0.045,-0.1,-0.1v-0.8c0,-0.055,0.045,-0.1,0.1,-0.1h10.833c0.055,0,0.1,0.045,0.1,0.1v0.8C13.033,7.955,12.989,8,12.933,8zM12.933,10H2.1c-0.055,0,-0.1,-0.045,-0.1,-0.1v-0.8c0,-0.055,0.045,-0.1,0.1,-0.1h10.833c0.055,0,0.1,0.045,0.1,0.1v0.8C13.033,9.955,12.989,10,12.933,10z" fill="#B4B4B5"/>
    <path d="M3,14H2v-3h1V14zM6,11H4v3h2V11zM8,11H7v3h1V11zM11,11H9v3h2V11zM13,11h-1v3h1V11z" fill="#58595B"/>
  </g>
</svg>
