<?xml version="1.0" encoding="UTF-8"?>
<!DOCTYPE svg PUBLIC "-//W3C//DTD SVG 1.1//EN" "http://www.w3.org/Graphics/SVG/1.1/DTD/svg11.dtd">
<svg version="1.1" id="Layer_1" xmlns="http://www.w3.org/2000/svg" xmlns:xlink="http://www.w3.org/1999/xlink" x="0px" y="0px" width="16px" height="16px" viewBox="0 0 16 16" enable-background="new 0 0 16 16" xml:space="preserve">
  <g id="icon">
    <path d="M14.225,0.5H3.775C3.071,0.5,2.5,1.071,2.5,1.775v4.222c0.145,-0.089,0.304,-0.175,0.48,-0.258c0.985,-0.466,2.265,-0.722,3.604,-0.722c3.088,0,5.417,1.391,5.417,3.235v1.319c0,1.091,-0.798,2.025,-2.077,2.612c0.008,0.077,0.014,0.154,0.014,0.231v1.319c0,0.266,-0.049,0.522,-0.139,0.766h4.426c0.704,0,1.275,-0.571,1.275,-1.275V1.775C15.5,1.071,14.929,0.5,14.225,0.5z" fill="#FFFFFF"/>
    <path d="M14.225,0H3.775C2.796,0,2,0.796,2,1.775v4.579c0.254,-0.215,0.575,-0.424,0.98,-0.615c0.007,-0.003,0.014,-0.006,0.02,-0.009V1.775c0,-0.427,0.348,-0.775,0.775,-0.775h10.45c0.427,0,0.775,0.348,0.775,0.775v11.45c0,0.427,-0.348,0.775,-0.775,0.775H9.92c-0.043,0.355,-0.171,0.691,-0.374,1h4.679c0.979,0,1.775,-0.796,1.775,-1.775V1.775C16,0.796,15.204,0,14.225,0z" fill="#797979"/>
    <path d="M12.412,4.025c0,0.642,-0.139,0.963,-0.395,0.963c-0.252,0,-0.408,-0.308,-0.408,-0.954c0,-0.659,0.165,-0.963,0.403,-0.963C12.277,3.071,12.412,3.4,12.412,4.025zM14,2.291v3.418c0,0.161,-0.13,0.291,-0.291,0.291h-3.168c-0.973,-0.612,-2.364,-0.983,-3.958,-0.983c-0.914,0,-1.8,0.12,-2.583,0.343V2.291C4,2.13,4.13,2,4.291,2h9.418C13.87,2,14,2.13,14,2.291zM13.071,4.016c0,-0.772,-0.299,-1.444,-1.049,-1.444c-0.729,0,-1.071,0.642,-1.071,1.461c0.004,0.798,0.325,1.453,1.054,1.453C12.719,5.486,13.071,4.884,13.071,4.016z" fill="#B4B4B5"/>
    <path d="M12.021,2.572c-0.729,0,-1.071,0.642,-1.071,1.461c0.004,0.798,0.325,1.453,1.054,1.453c0.716,0,1.067,-0.603,1.067,-1.47C13.071,3.244,12.771,2.572,12.021,2.572zM12.017,4.988c-0.252,0,-0.408,-0.308,-0.408,-0.954c0,-0.659,0.165,-0.963,0.403,-0.963c0.264,0,0.399,0.33,0.399,0.954C12.412,4.667,12.273,4.988,12.017,4.988z" fill="#FFFFFF"/>
    <path d="M14,10.875v1.749c0,0.207,-0.168,0.375,-0.375,0.375h-3.249c-0.207,0,-0.375,-0.168,-0.375,-0.375v-0.479c0.858,-0.41,1.489,-0.978,1.794,-1.646h1.831C13.832,10.5,14,10.668,14,10.875zM13.625,7h-2.017c0.253,0.382,0.392,0.803,0.392,1.252V9.5h1.625c0.207,0,0.375,-0.168,0.375,-0.375V7.375C14,7.168,13.832,7,13.625,7z" fill="#3E79B4"/>
    <g>
      <path d="M8.882,12.061c-0.732,0.219,-1.573,0.354,-2.448,0.354c-2.231,0,-4.152,-0.879,-4.67,-1.785C0.7,11.023,0,11.64,0,12.355c0,0.042,0,1.218,0,1.379c0,1.23,2.086,2.271,4.526,2.271c2.44,0,4.411,-1.041,4.411,-2.271c0,-0.196,0,-1.286,0,-1.319C8.938,12.294,8.918,12.176,8.882,12.061zM4.418,14.42c-2.414,0.047,-4.407,-0.883,-4.337,-2.125c0.302,0.924,2.047,1.613,4.166,1.613c2.331,0,4.526,-0.637,4.526,-1.702c0,-0.028,-0.002,-0.055,-0.005,-0.083c0.038,0.105,0.053,0.214,0.057,0.324C8.867,13.619,6.83,14.373,4.418,14.42z" fill-rule="evenodd" fill="#EAB765"/>
      <path d="M8.772,12.206c0,1.065,-2.195,1.702,-4.526,1.702c-2.119,0,-3.864,-0.689,-4.166,-1.613c-0.07,1.242,1.924,2.172,4.337,2.125c2.412,-0.047,4.449,-0.801,4.407,-1.973c-0.004,-0.11,-0.02,-0.218,-0.057,-0.324C8.77,12.151,8.772,12.178,8.772,12.206z" fill-rule="evenodd" fill="#FFFFFF"/>
    </g>
    <g>
      <path d="M6.584,6.017c-2.442,0,-4.521,0.944,-4.521,2.175c0,0.042,0,1.218,0,1.379c0,1.23,2.086,2.271,4.526,2.271c2.44,0,4.411,-1.041,4.411,-2.271c0,-0.196,0,-1.286,0,-1.319C11,7.021,9.026,6.017,6.584,6.017zM6.481,10.257c-2.414,0.047,-4.407,-0.883,-4.337,-2.125c0.302,0.924,2.047,1.613,4.166,1.613c2.331,0,4.526,-0.637,4.526,-1.702c0,-0.028,-0.002,-0.055,-0.005,-0.083c0.038,0.105,0.053,0.214,0.057,0.324C10.93,9.456,8.892,10.211,6.481,10.257z" fill-rule="evenodd" fill="#EAB765"/>
      <path d="M10.83,7.961c0.003,0.027,0.005,0.055,0.005,0.083c0,1.065,-2.195,1.702,-4.526,1.702c-2.119,0,-3.864,-0.689,-4.166,-1.613c-0.07,1.242,1.924,2.172,4.337,2.125c2.412,-0.047,4.449,-0.801,4.407,-1.973C10.883,8.174,10.867,8.066,10.83,7.961z" fill-rule="evenodd" fill="#FFFFFF"/>
    </g>
  </g>
</svg>
