<?xml version="1.0" encoding="UTF-8"?>
<!DOCTYPE svg PUBLIC "-//W3C//DTD SVG 1.1//EN" "http://www.w3.org/Graphics/SVG/1.1/DTD/svg11.dtd">
<svg version="1.1" id="Layer_1" xmlns="http://www.w3.org/2000/svg" xmlns:xlink="http://www.w3.org/1999/xlink" x="0px" y="0px" width="16px" height="16px" viewBox="0 0 16 16" enable-background="new 0 0 16 16" xml:space="preserve">
  <g id="icon">
    <path d="M8.99,8H7.039c-0.299,0.268,-0.489,0.656,-0.489,1.09c0,0.809,0.655,1.464,1.464,1.464c0.809,0,1.464,-0.655,1.464,-1.464C9.479,8.656,9.289,8.268,8.99,8z" fill="#FFFFFF"/>
    <path d="M8.99,8c0.299,0.268,0.489,0.656,0.489,1.09c0,0.809,-0.655,1.464,-1.464,1.464S6.551,9.898,6.551,9.09c0,-0.433,0.189,-0.822,0.489,-1.09H4.177c-0.098,0.346,-0.152,0.712,-0.152,1.09c0,0.66,0.16,1.282,0.444,1.83c0.563,1.089,2.727,4.129,3.367,5.021c0.088,0.123,0.27,0.123,0.359,0c0.64,-0.892,2.803,-3.932,3.367,-5.021c0.286,-0.552,0.446,-1.18,0.444,-1.845c-0.001,-0.372,-0.056,-0.732,-0.154,-1.075H8.99z" fill="#3E79B4"/>
    <path d="M14.025,6.5H1.975C1.054,6.5,0.5,5.946,0.5,5.025v-3.05C0.5,1.054,1.054,0.5,1.975,0.5h12.05C14.946,0.5,15.5,1.054,15.5,1.975v3.05C15.5,5.946,14.946,6.5,14.025,6.5z" fill="#FFFFFF"/>
    <path d="M14.025,0H1.975C0.776,0,0,0.776,0,1.975v3.05C0,6.224,0.776,7,1.975,7h12.05C15.224,7,16,6.224,16,5.025v-3.05C16,0.776,15.224,0,14.025,0zM15,5.025c0,0.648,-0.327,0.975,-0.975,0.975H1.975C1.327,6,1,5.673,1,5.025v-3.05c0,-0.648,0.327,-0.975,0.975,-0.975h12.05c0.648,0,0.975,0.327,0.975,0.975V5.025z" fill="#6D6E71"/>
    <path d="M4.187,4.756v0.499H2.307v-0.499h0.665v-1.95c0,-0.043,0.001,-0.086,0.002,-0.13s0.004,-0.089,0.007,-0.135l-0.439,0.388c-0.031,0.025,-0.061,0.04,-0.09,0.047c-0.029,0.007,-0.057,0.007,-0.083,0.001c-0.026,-0.006,-0.049,-0.016,-0.069,-0.029c-0.02,-0.014,-0.035,-0.028,-0.046,-0.043l-0.201,-0.287l1.031,-0.929h0.525v3.068H4.187zM6.722,4.633c0.069,0,0.124,0.02,0.163,0.061c0.039,0.041,0.059,0.095,0.059,0.162v0.398H4.619v-0.221c0,-0.043,0.008,-0.089,0.025,-0.139c0.017,-0.05,0.045,-0.095,0.085,-0.136L5.724,3.7c0.085,-0.09,0.159,-0.176,0.224,-0.259c0.065,-0.083,0.119,-0.164,0.162,-0.243c0.043,-0.079,0.075,-0.16,0.097,-0.242c0.022,-0.082,0.032,-0.168,0.032,-0.258c0,-0.159,-0.039,-0.28,-0.116,-0.362c-0.077,-0.083,-0.186,-0.124,-0.326,-0.124c-0.062,0,-0.118,0.009,-0.17,0.028c-0.052,0.019,-0.098,0.045,-0.139,0.077c-0.041,0.033,-0.076,0.071,-0.105,0.115c-0.029,0.044,-0.051,0.093,-0.065,0.145c-0.028,0.082,-0.065,0.136,-0.112,0.163c-0.047,0.027,-0.114,0.033,-0.2,0.018l-0.337,-0.064c0.025,-0.174,0.071,-0.326,0.139,-0.457c0.068,-0.131,0.152,-0.24,0.254,-0.327c0.102,-0.087,0.218,-0.152,0.349,-0.195c0.131,-0.043,0.272,-0.065,0.423,-0.065c0.159,0,0.303,0.025,0.433,0.075c0.13,0.05,0.241,0.12,0.334,0.209c0.092,0.089,0.164,0.197,0.215,0.323c0.051,0.126,0.076,0.265,0.076,0.418c0,0.131,-0.018,0.252,-0.053,0.364c-0.035,0.111,-0.084,0.217,-0.144,0.318c-0.061,0.101,-0.131,0.199,-0.211,0.294c-0.08,0.095,-0.165,0.191,-0.254,0.287l-0.712,0.774c0.079,-0.025,0.156,-0.044,0.233,-0.058c0.077,-0.014,0.149,-0.021,0.217,-0.021H6.722zM7.401,3.488h1.22v0.555h-1.22V3.488zM11.445,3.894v0.383c0,0.036,-0.011,0.067,-0.034,0.092s-0.054,0.038,-0.094,0.038h-0.261v0.847h-0.555v-0.847H9.118c-0.04,0,-0.077,-0.013,-0.11,-0.039c-0.033,-0.026,-0.054,-0.061,-0.061,-0.103l-0.067,-0.339l1.571,-2.238h0.605v2.206H11.445zM10.502,3.894V2.832c0,-0.056,0.002,-0.115,0.006,-0.178c0.004,-0.063,0.01,-0.129,0.017,-0.198l-0.97,1.437H10.502zM12.533,2.968c0.069,-0.015,0.136,-0.025,0.2,-0.032c0.064,-0.007,0.126,-0.01,0.186,-0.01c0.176,0,0.331,0.028,0.466,0.085c0.135,0.057,0.248,0.134,0.34,0.232c0.092,0.098,0.161,0.214,0.207,0.346c0.046,0.133,0.069,0.275,0.069,0.427c0,0.19,-0.032,0.363,-0.095,0.52c-0.063,0.156,-0.151,0.291,-0.262,0.403c-0.112,0.112,-0.245,0.199,-0.4,0.262c-0.155,0.062,-0.324,0.093,-0.507,0.093c-0.106,0,-0.208,-0.012,-0.305,-0.036c-0.097,-0.024,-0.188,-0.056,-0.272,-0.096c-0.084,-0.04,-0.162,-0.086,-0.235,-0.139c-0.072,-0.052,-0.137,-0.107,-0.194,-0.165l0.196,-0.285c0.042,-0.061,0.096,-0.091,0.162,-0.091c0.042,0,0.082,0.013,0.122,0.039c0.04,0.026,0.085,0.055,0.136,0.087c0.051,0.032,0.11,0.061,0.178,0.087c0.068,0.026,0.15,0.039,0.247,0.039c0.1,0,0.187,-0.018,0.261,-0.053c0.074,-0.035,0.135,-0.084,0.184,-0.145c0.049,-0.061,0.085,-0.134,0.109,-0.219c0.024,-0.084,0.036,-0.175,0.036,-0.271c0,-0.185,-0.05,-0.328,-0.149,-0.429c-0.099,-0.101,-0.244,-0.151,-0.433,-0.151c-0.156,0,-0.312,0.031,-0.469,0.093l-0.395,-0.118l0.282,-1.754h1.682v0.285c0,0.048,-0.007,0.091,-0.02,0.129c-0.013,0.038,-0.035,0.072,-0.065,0.101c-0.03,0.029,-0.069,0.051,-0.116,0.066c-0.047,0.016,-0.104,0.023,-0.172,0.023h-0.866L12.533,2.968z" fill="#58595B"/>
  </g>
</svg>
