<?xml version="1.0" encoding="UTF-8"?>
<!DOCTYPE svg PUBLIC "-//W3C//DTD SVG 1.1//EN" "http://www.w3.org/Graphics/SVG/1.1/DTD/svg11.dtd">
<svg version="1.1" id="Layer_1" xmlns="http://www.w3.org/2000/svg" xmlns:xlink="http://www.w3.org/1999/xlink" x="0px" y="0px" width="16px" height="16px" viewBox="0 0 16 16" enable-background="new 0 0 16 16" xml:space="preserve">
  <g id="icon">
    <path d="M3.017,11.232c-0.914,0,-1.655,0.774,-1.655,1.729c0,0.955,0.741,1.729,1.655,1.729c0.914,0,1.655,-0.774,1.655,-1.729C4.672,12.006,3.931,11.232,3.017,11.232zM3.017,13.628c-0.352,0,-0.638,-0.298,-0.638,-0.666c0,-0.368,0.286,-0.666,0.638,-0.666c0.352,0,0.638,0.298,0.638,0.666C3.655,13.329,3.369,13.628,3.017,13.628zM12.695,11.232c-0.914,0,-1.655,0.774,-1.655,1.729c0,0.955,0.741,1.729,1.655,1.729c0.914,0,1.655,-0.774,1.655,-1.729C14.35,12.006,13.609,11.232,12.695,11.232zM12.695,13.628c-0.352,0,-0.638,-0.298,-0.638,-0.666c0,-0.368,0.286,-0.666,0.638,-0.666c0.352,0,0.638,0.298,0.638,0.666C13.333,13.329,13.047,13.628,12.695,13.628z" fill="#797979"/>
    <path d="M5,10V4.366c0,-0.239,-0.199,-0.366,-0.43,-0.366H1.69c-0.231,0,-0.244,0.111,-0.418,0.4c-0.174,0.289,-0.46,0.913,-1.192,2.393C0.026,6.904,0,7.162,0,7.357c0,1.504,0,5.224,0,5.224C0,12.82,0.239,13,0.47,13h0.264c0,0,-0.003,-0.002,-0.003,-0.02c0,-1.286,1.006,-2.373,2.248,-2.373c1.124,0,2.054,0.861,2.221,1.978V13h5.283c0,-1.321,1.005,-2.395,2.244,-2.395c1.24,0,2.244,1.074,2.244,2.395H16v-3H5zM4.1,7.4H0.8v-0.619L1.699,4.8H4.1V7.4z" fill="#3E79B4"/>
    <path d="M12.695,12.295c-0.352,0,-0.638,0.298,-0.638,0.666c0,0.368,0.286,0.666,0.638,0.666c0.352,0,0.638,-0.298,0.638,-0.666C13.333,12.593,13.047,12.295,12.695,12.295zM3.017,12.295c-0.352,0,-0.638,0.298,-0.638,0.666c0,0.368,0.286,0.666,0.638,0.666c0.352,0,0.638,-0.298,0.638,-0.666C3.655,12.593,3.369,12.295,3.017,12.295zM4.1,7.4H0.8v-0.619L1.699,4.8H4.1V7.4z" fill-rule="evenodd" fill="#FFFFFF"/>
    <path d="M9.417,5H6.583C6.261,5,6,5.261,6,5.583v2.833c0,0.322,0.261,0.583,0.583,0.583h2.833c0.322,0,0.583,-0.261,0.583,-0.583V5.583C10,5.261,9.739,5,9.417,5z" fill="#3E79B4"/>
    <path d="M14.417,5h-2.833c-0.322,0,-0.583,0.261,-0.583,0.583v2.833c0,0.322,0.261,0.583,0.583,0.583h2.833c0.322,0,0.583,-0.261,0.583,-0.583V5.583C15,5.261,14.739,5,14.417,5z" fill="#3E79B4"/>
    <path d="M9.417,0H6.583C6.261,0,6,0.261,6,0.583v2.833c0,0.322,0.261,0.583,0.583,0.583h2.833c0.322,0,0.583,-0.261,0.583,-0.583V0.583C10,0.261,9.739,0,9.417,0z" fill="#3E79B4"/>
    <path d="M14.417,0h-2.833C11.261,0,11,0.261,11,0.583v2.833c0,0.322,0.261,0.583,0.583,0.583h2.833c0.322,0,0.583,-0.261,0.583,-0.583V0.583C15,0.261,14.739,0,14.417,0z" fill="#3E79B4"/>
  </g>
</svg>
