<?xml version="1.0" encoding="UTF-8"?>
<!DOCTYPE svg PUBLIC "-//W3C//DTD SVG 1.1//EN" "http://www.w3.org/Graphics/SVG/1.1/DTD/svg11.dtd">
<svg version="1.1" id="Layer_1" xmlns="http://www.w3.org/2000/svg" xmlns:xlink="http://www.w3.org/1999/xlink" x="0px" y="0px" width="16px" height="16px" viewBox="0 0 16 16" enable-background="new 0 0 16 16" xml:space="preserve">
  <g id="icon">
    <path d="M0.5,0v16M15.5,0v16" fill="none" stroke="#6D6E71" stroke-width="1" stroke-miterlimit="1" stroke-linejoin="round"/>
    <path d="M9.6,15v-0.387c0,-0.069,0.015,-0.142,0.043,-0.216c0.029,-0.076,0.077,-0.147,0.142,-0.209L11.624,12.4c0.153,-0.149,0.292,-0.293,0.412,-0.429c0.118,-0.134,0.22,-0.269,0.303,-0.401c0.082,-0.131,0.145,-0.265,0.187,-0.399c0.042,-0.132,0.063,-0.273,0.063,-0.42c0,-0.138,-0.022,-0.261,-0.065,-0.365c-0.042,-0.102,-0.101,-0.187,-0.173,-0.252c-0.073,-0.066,-0.161,-0.116,-0.264,-0.15c-0.105,-0.035,-0.223,-0.052,-0.351,-0.052c-0.122,0,-0.237,0.017,-0.339,0.051c-0.103,0.034,-0.195,0.081,-0.275,0.14c-0.079,0.059,-0.146,0.13,-0.198,0.212c-0.053,0.083,-0.093,0.174,-0.117,0.273l-0.003,0.01c-0.05,0.131,-0.115,0.219,-0.201,0.268c-0.057,0.033,-0.127,0.049,-0.21,0.049c-0.043,0,-0.09,-0.004,-0.141,-0.013l-0.559,-0.096l0.014,-0.092c0.043,-0.28,0.124,-0.531,0.243,-0.744c0.119,-0.214,0.272,-0.396,0.454,-0.54c0.181,-0.144,0.392,-0.254,0.626,-0.328c0.232,-0.073,0.487,-0.11,0.756,-0.11c0.273,0,0.528,0.04,0.759,0.119c0.232,0.08,0.435,0.195,0.604,0.342c0.17,0.148,0.305,0.33,0.4,0.54c0.095,0.21,0.144,0.45,0.144,0.711c0,0.222,-0.034,0.431,-0.102,0.62c-0.066,0.187,-0.158,0.368,-0.271,0.538c-0.112,0.168,-0.244,0.334,-0.394,0.493c-0.147,0.156,-0.304,0.316,-0.464,0.474l-1.196,1.186c0.011,-0.002,0.022,-0.004,0.034,-0.005c0.124,-0.019,0.243,-0.029,0.355,-0.029h1.737c0.124,0,0.224,0.037,0.298,0.111c0.073,0.073,0.11,0.165,0.11,0.276V15H9.6zM2.8,15v-1h1.2v-3.365c0,-0.06,0.001,-0.122,0.003,-0.184l-0.853,0.655c-0.052,0.041,-0.108,0.069,-0.166,0.082c-0.03,0.007,-0.061,0.01,-0.09,0.01c-0.026,0,-0.052,-0.003,-0.076,-0.008c-0.049,-0.011,-0.093,-0.028,-0.131,-0.052c-0.04,-0.024,-0.072,-0.053,-0.096,-0.084l-0.328,-0.456L4.139,9H5v5h1.2v1H2.8zM8.5,15v-1H7.5v1H8.5z" fill="#6D6E71"/>
    <polygon points="14.3,3.5 11,1.788 11,3 5,3 5,1.788 1.7,3.5 5,5.259 5,4 11,4 11,5.259" fill="#3E79B4" stroke-linejoin="miter"/>
  </g>
</svg>
