<?xml version="1.0" encoding="UTF-8"?>
<!DOCTYPE svg PUBLIC "-//W3C//DTD SVG 1.1//EN" "http://www.w3.org/Graphics/SVG/1.1/DTD/svg11.dtd">
<svg version="1.1" id="Layer_1" xmlns="http://www.w3.org/2000/svg" xmlns:xlink="http://www.w3.org/1999/xlink" x="0px" y="0px" width="16px" height="16px" viewBox="0 0 16 16" enable-background="new 0 0 16 16" xml:space="preserve">
  <g id="icon">
    <path d="M15.912,13.0537c-0.3993,-2.0157,-1.1096,-2.0493,-4.9935,-3.4211c-0.5671,-0.2131,-0.7272,-0.5196,-0.6847,-0.957c1.0955,-1.3098,1.7556,-3.4287,1.7556,-4.91c0,-2.294,-0.7826,-3.747,-3.9885,-3.747c-0.0132,0,0.0043,0,0,0c-3.2058,0,-3.924,1.453,-3.924,3.747c0,1.4813,0.6575,3.5961,1.7531,4.9059c0.0425,0.4375,-0.1189,0.746,-0.686,0.9591C1.26,11.0024,0.5491,11.037,0.1498,13.0527c-0.1201,0.8102,-0.14,1.1499,0.1796,2.0476c0.3598,1.0105,5.4454,0.8783,7.6715,0.8783c0.009,0,-0.0152,0,0,0c2.2261,0,7.3714,0.1327,7.7312,-0.8778C16.0517,14.203,16.032,13.8639,15.912,13.0537z" fill-rule="evenodd" fill="#3E79B4"/>
  </g>
</svg>
