<?xml version="1.0" encoding="UTF-8"?>
<!DOCTYPE svg PUBLIC "-//W3C//DTD SVG 1.1//EN" "http://www.w3.org/Graphics/SVG/1.1/DTD/svg11.dtd">
<svg version="1.1" id="Layer_1" xmlns="http://www.w3.org/2000/svg" xmlns:xlink="http://www.w3.org/1999/xlink" x="0px" y="0px" width="16px" height="16px" viewBox="0 0 16 16" enable-background="new 0 0 16 16" xml:space="preserve">
  <g id="icon">
    <path d="M15.9346,10.6887c-0.3272,-1.654,-0.9092,-1.6815,-4.0917,-2.8072c-0.4647,-0.1748,-0.5959,-0.4263,-0.5611,-0.7853c0.8977,-1.0748,1.4386,-2.8134,1.4386,-4.0289c0,-1.8823,-0.6413,-3.0746,-3.2682,-3.0746c-2.0524,0,-2.8598,0.6973,-3.115,1.9098C6.3798,1.9019,6.4205,1.9,6.4639,1.9c0,0,0.0027,0,0.0041,0c2.8721,0,4.2682,1.3349,4.2682,4.0767c0,1.0883,-0.3748,2.6966,-1.1864,3.9983c0.1867,0.0654,0.3636,0.1273,0.5311,0.1855c2.2602,0.7854,3.2913,1.145,3.7522,2.827c1.0275,-0.0953,1.8312,-0.2759,1.954,-0.6213C16.0491,11.6296,16.033,11.3535,15.9346,10.6887z" fill-rule="evenodd" fill="#B4B4B5"/>
    <path d="M12.9504,13.6001c-0.3272,-1.654,-0.9092,-1.6815,-4.0917,-2.8072c-0.4647,-0.1748,-0.5959,-0.4263,-0.5611,-0.7853c0.8977,-1.0748,1.4386,-2.8134,1.4386,-4.0289c0,-1.8823,-0.6413,-3.0746,-3.2682,-3.0746c-0.0108,0,0.0035,0,0,0c-2.6269,0,-3.2153,1.1923,-3.2153,3.0746c0,1.2155,0.5388,2.9507,1.4365,4.0255c0.0348,0.359,-0.0975,0.6122,-0.5621,0.787c-3.1825,1.1257,-3.765,1.1541,-4.0922,2.808c-0.0984,0.6648,-0.1147,0.9435,0.1472,1.6802c0.2948,0.8292,4.462,0.7207,6.2861,0.7207c0.0074,0,-0.0125,0,0,0c1.8241,0,6.0401,0.1089,6.3349,-0.7203C13.0649,14.5432,13.0488,14.2649,12.9504,13.6001z" fill-rule="evenodd" fill="#3E79B4"/>
  </g>
</svg>
