<?xml version="1.0" encoding="UTF-8"?>
<!DOCTYPE svg PUBLIC "-//W3C//DTD SVG 1.1//EN" "http://www.w3.org/Graphics/SVG/1.1/DTD/svg11.dtd">
<svg version="1.1" id="Layer_1" xmlns="http://www.w3.org/2000/svg" xmlns:xlink="http://www.w3.org/1999/xlink" x="0px" y="0px" width="16px" height="16px" viewBox="0 0 16 16" enable-background="new 0 0 16 16" xml:space="preserve">
  <g id="icon">
    <path d="M8,0C3.5817,0,0,3.5817,0,8c0,4.4183,3.5817,8,8,8s8,-3.5817,8,-8C16,3.5817,12.4183,0,8,0zM13,7.8191v0.476v0.4511c0,0.1342,-0.1658,0.2538,-0.3,0.2538H6.8953l2.548,2.8166c0.0694,0.0699,0.0199,0.1834,-0.0786,0.1834H7.0064c-0.0628,0,-0.1231,-0.0243,-0.1684,-0.0678c0,0,-3.0205,-3.1144,-3.7544,-3.8173c-0.0765,-0.0733,-0.076,-0.1955,0.0012,-0.2681c0.7363,-0.6926,3.7532,-3.7804,3.7532,-3.7804c0.0453,-0.0427,0.1052,-0.0665,0.1675,-0.0663l2.3708,0.0067c0.0985,0.0003,0.1477,0.1128,0.0781,0.1825L6.8953,7H12.7c0.1342,0,0.3,0.122,0.3,0.2563V7.8191z" fill-rule="evenodd" fill="#3E79B4"/>
    <path d="M6.838,4.0663c0.0453,-0.0427,0.1052,-0.0665,0.1675,-0.0663l2.3708,0.0067c0.0985,0.0003,0.1477,0.1194,0.0781,0.1891L6.8953,7.0132H12.7c0.1342,0,0.3,0.1088,0.3,0.243v0.5628v0.476v0.4511c0,0.1342,-0.1658,0.243,-0.3,0.243H6.8953l2.548,2.8219c0.0694,0.0699,0.0199,0.1888,-0.0786,0.1888H7.0064c-0.0628,0,-0.1231,-0.0243,-0.1684,-0.0678c0,0,-3.0205,-3.1144,-3.7544,-3.8173c-0.0765,-0.0733,-0.076,-0.1955,0.0012,-0.2681C3.8211,7.1541,6.838,4.0663,6.838,4.0663z" fill-rule="evenodd" fill="#FFFFFF"/>
  </g>
</svg>
