<?xml version="1.0" encoding="UTF-8"?>
<!DOCTYPE svg PUBLIC "-//W3C//DTD SVG 1.1//EN" "http://www.w3.org/Graphics/SVG/1.1/DTD/svg11.dtd">
<svg version="1.1" id="Layer_1" xmlns="http://www.w3.org/2000/svg" xmlns:xlink="http://www.w3.org/1999/xlink" x="0px" y="0px" width="16px" height="16px" viewBox="0 0 16 16" enable-background="new 0 0 16 16" xml:space="preserve">
  <g id="icon">
    <path d="M8,0C3.5817,0,0,3.5817,0,8c0,4.4183,3.5817,8,8,8s8,-3.5817,8,-8C16,3.5817,12.4183,0,8,0zM12.9153,8.1533c-0.7363,0.6926,-3.7532,3.7804,-3.7532,3.7804c-0.0453,0.0427,-0.1052,0.0665,-0.1675,0.0663l-2.3708,-0.0067c-0.0985,-0.0003,-0.1477,-0.1127,-0.0781,-0.1825L9.1047,9H3.3c-0.1342,0,-0.3,-0.122,-0.3,-0.2563v-0.5628v-0.476v-0.4511C3,7.1196,3.1658,7,3.3,7h5.8047l-2.548,-2.8166C6.4873,4.1135,6.5369,4,6.6354,4h2.3583c0.0628,0,0.1231,0.0243,0.1684,0.0678c0,0,3.0205,3.1144,3.7544,3.8173C12.993,7.9584,12.9925,8.0807,12.9153,8.1533z" fill-rule="evenodd" fill="#3E79B4"/>
    <path d="M9.162,11.9337c-0.0453,0.0427,-0.1052,0.0665,-0.1675,0.0663l-2.3708,-0.0067c-0.0985,-0.0003,-0.1477,-0.1194,-0.0781,-0.1891l2.5591,-2.8175H3.3c-0.1342,0,-0.3,-0.1088,-0.3,-0.243v-0.5628v-0.476v-0.4511c0,-0.1342,0.1658,-0.243,0.3,-0.243h5.8047l-2.548,-2.8219C6.4873,4.1189,6.5369,4,6.6354,4h2.3583c0.0628,0,0.1231,0.0243,0.1684,0.0678c0,0,3.0205,3.1144,3.7544,3.8173c0.0765,0.0733,0.076,0.1955,-0.0012,0.2681C12.1789,8.8459,9.162,11.9337,9.162,11.9337z" fill-rule="evenodd" fill="#FFFFFF"/>
  </g>
</svg>
